<?xml version="1.0" encoding="UTF-8" standalone="no"?>
<svg
   version="1.2"
   viewBox="0 0 766.01636 1231.0085"
   width="766.01636"
   height="1231.0085"
   id="svg210"
   sodipodi:docname="zim.yelling-ai.svg"
   inkscape:version="1.1.2 (b8e25be833, 2022-02-05)"
   xmlns:inkscape="http://www.inkscape.org/namespaces/inkscape"
   xmlns:sodipodi="http://sodipodi.sourceforge.net/DTD/sodipodi-0.dtd"
   xmlns="http://www.w3.org/2000/svg"
   xmlns:svg="http://www.w3.org/2000/svg">
  <defs
     id="defs214" />
  <sodipodi:namedview
     id="namedview212"
     pagecolor="#ffffff"
     bordercolor="#666666"
     borderopacity="1.0"
     inkscape:pageshadow="2"
     inkscape:pageopacity="0.0"
     inkscape:pagecheckerboard="0"
     showgrid="false"
     inkscape:zoom="0.32765152"
     inkscape:cx="383.0289"
     inkscape:cy="616.50867"
     inkscape:window-width="1366"
     inkscape:window-height="705"
     inkscape:window-x="-8"
     inkscape:window-y="-8"
     inkscape:window-maximized="1"
     inkscape:current-layer="svg210" />
  <title
     id="title2">zim</title>
  <style
     id="style4">
		.s0 { fill: #000000 } 
		.s1 { fill: #abc184 } 
		.s2 { fill: #7a0048 } 
		.s3 { fill: #f5d5e3 } 
		.s4 { fill: #d9bfd8 } 
		.s5 { fill: #540a2b } 
		.s6 { fill: #a897a0 } 
		.s7 { fill: #bc0051 } 
		.s8 { fill: #d10053 } 
		.s9 { fill: #990c44 } 
		.s10 { fill: #e794a8 } 
		.s11 { fill: #41722e } 
		.s12 { fill: #8a7e8b } 
		.s13 { fill: #d6818a } 
		.s14 { fill: #a90042 } 
	</style>
  <g
     id="Layer 1"
     transform="translate(-229.76804,-177)">
    <path
       id="&lt;Path&gt;"
       class="s0"
       d="m 777.6,178.8 c 4.1,1.1 9,0.4 13.3,2.7 9.2,4.1 19.6,9 26.1,17.8 1.1,1.6 2.7,2.7 3.6,4.7 2.9,2.7 4.5,8.1 7,11.3 2.2,3.3 3.2,8.3 4.7,11.4 0.9,2.8 2.5,5.7 3.4,8.4 0.2,1.8 -0.5,4.2 0.7,5.6 -0.2,2.5 0.6,5 1.3,7.6 5.6,0.7 11,3.2 15.8,5 2.9,-0.3 2.4,4 5.4,3.4 1.1,3.8 2.4,7.8 4.5,11.5 0.9,2.8 2,6.2 2.7,9 0.4,5.5 4,9.8 3.6,15.2 1.5,0.9 0,2.8 1.5,3.6 -0.2,2.8 1.9,4.8 1.4,7.9 1.3,2.1 0.9,4.5 1.6,6.6 1.6,1.7 0.9,4.9 2.5,6.7 -0.5,2 2.2,3.8 0.9,5.8 1.8,2.1 1.5,5.2 3.1,7 -0.2,2.7 1.4,5.2 1.4,7.7 1.3,1.3 1.1,3.8 2,4.7 0.6,1.8 0.9,3.8 2,5.4 -0.2,2 0.9,3.2 0.9,5 0.2,0.4 0,0.9 0.5,1.1 -0.1,-0.2 -0.3,0.2 -0.3,0.2 -0.4,1.1 1.1,1.1 0.5,2.2 1.6,1 0.6,3 1.6,4.5 -0.5,2.5 0.9,5 1.3,7.5 -0.5,1.7 0.9,2 0.7,4 0.9,2 1.8,4.9 2.2,7.2 1.8,0.3 -0.2,2.3 0.7,3.6 2,4.5 1.4,10.6 3.2,15.3 1.5,1.4 0.6,3.8 1.7,5.2 -2,1.8 1.9,2.9 0.5,4.7 1.1,3.6 1.4,7.6 2.7,10.6 0.7,3.4 0,7.6 2.2,11 0.7,9.7 4.3,19.1 5.2,29.7 0.7,3.2 0.2,6.3 1.2,9.7 0.9,2.4 -1,4.9 0.6,7.4 -2.2,7.7 1.2,14.2 0.9,21.6 0.5,12.4 2.1,24.7 3.2,36.2 -0.2,1.2 -0.5,2.3 0.2,3.4 0.5,2.2 0,4.5 0.7,6.5 -1.2,0.7 0.4,2.3 0.4,3.4 0.3,12.9 2,24.7 2,37.3 0.5,4.3 0.3,9.3 0.7,14.4 0.5,5.4 0.3,11.1 1.1,16.3 -1.1,0.6 0,1.1 0.1,1.7 -0.3,5.9 0.6,11.1 0.9,17.6 0,5.6 0,13 0,18.2 -1.6,-0.9 -0.3,2.9 -2.1,2.3 -0.6,1.1 0.3,2.4 -0.9,2.9 -2.5,5.9 -5.8,11.9 -9,17.6 -1.5,0.2 -1.5,2 -2,2.9 -1.4,1.8 -3.2,4.2 -4.3,5.4 -3.4,5.8 -7.8,10.6 -11.5,16.4 -4,3.9 -6,9.5 -10.3,12.8 0.2,1.8 -2,1.4 -1.8,3.2 -0.7,0.4 -0.9,-0.7 -1.3,0.2 -0.1,0.4 0.2,0.5 0.2,0.9 -2.7,3.1 -5.7,7.6 -8.3,10.1 -0.7,1.1 -0.9,2.7 -2.3,3 0.5,0.9 -0.7,0.9 -1.1,1.5 -4.3,5.2 -8.8,10.1 -14,14.6 12.4,-14.1 21.9,-29.2 31.3,-44.9 0,-1.6 1.3,-2.1 1.8,-3.6 1.6,-4.8 4.5,-9.7 6.5,-14 0.9,-3.6 4.1,-6.9 5.4,-10.4 -0.2,-1.3 0.9,-2.7 1.4,-3.5 0.6,-2.5 2,-5.7 3.3,-7.5 0.7,-4.3 3.9,-8 4.1,-11.7 2.5,-6.1 5.2,-12.6 7.9,-18.8 -1.1,-28.6 -5,-56.6 -7.5,-85.1 -0.6,-8.6 -3.8,-18.5 -4,-27.5 -1.1,-6.5 -1.4,-12.6 -3.1,-18.4 -2.1,2.7 -5.5,2.5 -6.1,6.5 -1.1,2 -2,-0.7 -2.3,1.6 -1.3,0.4 -1.3,2.5 -2.5,2.5 -2,3.3 -5.4,5.6 -7.4,8.9 -1.6,1.4 -3.4,1.8 -4,3.7 -1.6,1.1 -2.5,4 -4.5,4.7 -0.3,1.6 -2.7,1.6 -2.9,3.3 -1,1.8 -3.7,0.8 -3.4,3.7 -2.7,1.8 -3.2,5.3 -5.9,6.9 -1.1,2.5 -4.5,2.1 -4.3,5.2 -1.3,0.2 -2.2,1.8 -2.7,3 -2.2,2.9 -4.4,5.6 -6.9,8 -0.9,2.5 -3.8,3 -4.1,6.1 -2.5,4.1 -6.9,6.5 -8.8,11.2 -1.1,2.3 -4.5,2.5 -4.4,5.7 -1.6,2.2 -3,3.8 -5.2,4.9 -0.9,3.4 -5.2,4.8 -6.6,8.4 -2.2,1.8 -3.3,3.8 -5.4,5.4 0.5,2 -2,2.6 -2,4.3 -1.8,1 -1.6,2.6 -3.3,3.5 -1,1.4 -0.7,2.9 -2.8,3.9 1.4,5.8 1.6,11.9 3.2,17.5 1.4,6.3 2.7,12.6 4,19.3 -1.3,0.1 0,1.9 -1.3,1.9 -1.8,4.4 -2.5,8.9 -6.1,12.1 0,1.8 -1.6,0.9 -1.6,2.7 -4.2,7.6 -10.1,14.9 -14.1,22.1 -2.3,2.7 -4.8,6.2 -6.5,9 -0.7,2.7 -3.9,2.5 -3.9,5.4 -4.7,5.4 -7.9,10.8 -12.8,16.1 -1.1,-0.2 -0.4,-1.8 -0.4,-2.6 2.2,-3.6 4.7,-7.4 7.4,-10.4 10.5,-20.3 20.2,-41.2 29.5,-62.5 1.3,-6.8 -2.8,-13.8 -3.2,-20.7 -1.4,-1.6 -1.3,1.8 -2.3,1.8 -2.7,2.2 -4,5.1 -6.2,7.9 -1,1.9 -3.6,3.7 -4.1,5.8 -1.1,-0.2 -1.1,1.8 -1.6,2.7 -1.8,2.2 -3.6,4.3 -5.2,6.5 0.3,3 -2.9,2.5 -3.6,4.9 -0.9,5.4 -7.6,5.7 -8.1,11.6 -1.3,0.2 -2,2.4 -2.7,3.1 -1.3,5.2 -6.2,7.6 -8,12.6 0,-0.2 0,-0.2 -0.1,-0.3 -2,3.6 -4.2,6.4 -6,9.7 -1.2,2.5 -4.8,3.8 -4.7,6.8 -1.2,2.7 -5.4,3.4 -5.4,6.7 -2.3,1.2 -1.2,5 -3.7,6.4 -0.2,1.5 -2.7,1.9 -2.2,3.8 -2.3,1.5 -1.4,5.1 -4.3,5.1 0.9,3.4 -3.4,3.4 -3.8,6.5 -4,2.8 -2.5,9.5 -6.8,12 -0.9,1.6 -1.8,3.8 -2.6,5.6 -1.2,2 -3,2.7 -3.6,5.2 -2.7,1.6 -1.2,5.4 -4.5,6.7 -0.3,2.1 -1.4,4.5 -3.4,5.2 -1.8,2.3 -2.1,5.6 -4.7,7.4 0.8,2 -1.9,2 -1.6,3.6 -2.1,0.5 -1.1,3 -2.5,3.9 -1.3,2.4 -1.6,3.8 -3.2,6.2 -0.6,2.1 -2.7,3.6 -4.2,5 0,2 -2.5,3.6 -2.5,5.8 -3.1,1.4 -2.7,5.2 -4.9,7.2 -4.1,7.7 -7.5,15.6 -12,23.3 0.7,1.3 -1.3,2 -0.9,3.5 -0.9,0.7 -1.8,1.8 -1.6,3 -1.5,1.8 -2.4,4.5 -3.6,6.3 -3.8,11.4 -9.2,21.8 -12.6,33.5 -1.5,0.4 -1.1,2.2 -2,3.2 -0.7,4.4 -3.4,8 -5.1,12.3 0.6,1.2 -0.5,1.6 -0.9,2.7 0.4,1.8 -1,3 -1.2,4.9 5.6,-2 11.7,-2.6 16.7,-2.4 1.1,-2.1 4.3,-0.2 6,-1.8 2.1,-0.9 3.7,1.1 5.4,-0.7 5.2,-1.1 11.1,0.2 16.3,-1.1 0,0.6 1.1,0.7 0.8,1.5 -1.3,3.6 -4.4,5.2 -6.5,7.7 -2,1.8 -4,3.2 -5.8,5.4 -1.2,-0.5 -1.2,1.1 -2,1.1 -2.7,3.2 -5.4,6.1 -8.2,8.8 -1.5,1.3 -2.9,1.6 -3.3,3.6 -0.9,0.5 -1.6,1.1 -2.1,2.3 1.8,1.1 3.2,2.2 5.2,2.7 0.3,0.9 1.2,1.7 2.5,1.8 1.4,1.8 3.6,2.6 4.3,5.1 9.2,-2.2 18.4,-7 27.6,-10.6 1,0 2.3,-1.3 3.4,-1.1 4.7,-2.7 9.9,-3.6 14.9,-6 1.6,-0.5 3.8,-1.9 5.4,-2.3 4.9,-1.6 10.1,-3.2 14.4,-5.8 23.2,-7.2 46.1,-17.6 69.9,-24.4 0.9,-1.5 -0.9,-2.6 -0.9,-4.2 -0.2,-2.3 -1.5,-4.8 -0.8,-7 0.2,-0.4 -0.1,-0.7 0.4,-0.9 0.7,-0.2 0.7,0.9 1.1,1.3 7.7,-3.6 16.7,-4.2 24.5,-7.8 0.1,0 0.5,0.9 0.9,0.2 v -0.4 c 19.8,-4.8 38.8,-12.7 58.5,-18.1 6.3,-2 12.6,-4 18.9,-5.8 5.9,-2.2 12.4,-5.4 18.9,-6.5 2.3,-1.6 5.2,-2.1 7.5,-3 6,-2.6 12.1,-4.5 18,-7.6 -4.8,-9.4 -8.1,-18.9 -15.5,-26.5 -0.5,-1.2 -1.4,-1.8 -2.1,-2.9 -1.6,-2.1 -3.6,-4.6 -6,-5.2 0.2,-0.7 -0.1,-1.4 0.2,-1.9 4.7,-4.5 10.1,-8.3 15,-12.6 1.6,-0.2 2.7,2.7 4.3,2.8 1.1,0.9 1.6,2.6 2.7,3.1 0.7,0.5 0.9,1.4 1.6,2 2,-0.9 3.1,-2.7 4.5,-4 6.8,-8.8 12.6,-17.6 18.7,-26.8 0.2,-0.4 0.9,-0.4 1.1,-0.5 7.9,15.8 16.2,31.5 16.9,50.4 0,3 0.6,6.8 -1.4,9.5 0.3,1.1 -0.4,2.2 -1.1,2.7 -0.2,-0.2 -0.2,-0.2 -0.2,-0.4 -2.5,2.4 -5.7,5.3 -9.2,5.8 -1.8,2 -5.4,2.3 -7.2,4 -0.5,-0.9 -0.7,0.1 -0.9,0.5 -1.4,0.9 -3.4,1.1 -4.5,2.1 -1.9,1.7 -3.7,1.1 -5.2,2.8 -2.5,1 -4.8,2.5 -7.2,3.7 -5.2,2.9 -12.4,4.4 -17.4,8.7 -1.3,-0.6 -2,0.9 -2.9,1.2 -2.4,2 -5.6,2.6 -7.9,4.4 -2.6,1.6 -5.6,2.3 -8,4.1 -0.1,-0.2 -0.1,-0.2 -0.3,-0.2 -2.7,1.6 -5.8,3.6 -8.1,4.9 -1.5,0 -2.9,1.8 -4.5,2.3 -7.9,3.1 -15.1,8.3 -22.3,11.9 -1.1,1.1 -2.2,1.6 -3.1,2 -1.6,1.2 -3.4,2.9 -5.4,3.7 -2.5,0.6 -4.5,2.9 -7.4,2.9 -0.5,0.9 -1.1,2.6 -2.5,1.6 -2.9,2.4 -5.6,5.1 -9.4,6 -0.5,1.4 -2.8,1.6 -3.9,2.9 -1.5,-0.2 -1.6,0.7 -2.5,1.2 -4.4,0.9 -6.7,4 -11,5.1 -2.9,1.6 -4.7,2.8 -7.8,4.1 -0.5,0.2 -1,1.1 -2.1,1.1 -1.8,2 -4.5,2.9 -6.3,4.5 -1.5,0.5 -5.6,-0.4 -6.5,0 -3.1,-2.4 -4.1,-6.1 -5.8,-9.4 -4.3,2.4 -9.1,4.5 -13.5,5.3 -3.7,2.3 -7.5,4.6 -11.3,6.4 -2.5,0.8 -5,1.3 -7.2,3.1 -1.1,-0.5 -0.7,1.2 -2,0.5 -1.1,1.5 -2.9,0.9 -3.9,2.2 -1.5,0.5 -2.6,1.6 -4.2,1.6 -0.9,1.1 -2.3,1.4 -3.8,2.2 -3.2,1.4 -7,3 -10.4,4.5 -1.3,-0.4 -2.5,1.2 -3.8,0.9 -0.3,1.1 -1.1,0.3 -2,1.1 -0.5,-0.2 -0.7,-0.2 -1.2,0.1 -0.7,1.3 -3.1,1.5 -4.3,2 -2.7,2 -6.3,3.8 -9.8,4.5 -3.6,3.4 -9.9,4.5 -14.2,7.4 -2.5,1.4 -4.7,2.5 -7.2,3.8 -0.9,-0.4 -1.2,0.5 -2.3,1.1 -1.1,0.1 -2,1.6 -3.3,1 -1.2,1.5 -4.1,0.9 -4.8,2.9 -2,0.2 -4.2,1.4 -6.3,2 -1.5,0.7 -2.9,1.1 -4.3,1.6 -1.8,0.9 -3.5,0.6 -4,2.5 -2,-0.5 -2.2,1.7 -4.1,1.5 0.3,3 4.1,3.9 3.9,6.5 1.6,6.3 4,12.9 3.1,19.8 0,1.6 1.4,3.2 0.2,4.6 1,2.4 0.7,5.8 0.1,8.3 -0.9,5.4 0,11.2 -1.2,16.9 -0.2,0.2 -0.4,0.4 -0.7,0.7 0.1,6 -1.5,11 -2.2,17 -2.3,0.5 -1.1,3.9 -2.9,5 -2.7,6.1 -2.1,13.7 -7.4,18.4 0.6,0.5 -0.7,0.3 -0.7,1.1 -3.6,7.2 -8.1,11.8 -13.3,18.3 -5.8,6.3 -12.6,14.4 -19.6,18.6 -1.1,2.1 -4.2,3.2 -5.2,5.2 -1.3,1.2 -3.3,2.1 -4.2,3.4 -0.9,0.2 -1.2,0.5 -1.8,1.3 -5,2.7 -9.3,8.2 -14.7,10.7 -0.8,1 -2.4,0.4 -3.1,1.5 0,2.9 1.4,5.6 1.1,8.6 -0.6,0.2 -0.6,0.6 0,0.8 0,3.4 0.5,6.8 0.3,9.7 -0.1,0.2 -0.1,0.5 -0.1,0.7 0.3,0.7 0.1,2.3 1,3.1 -1,3 2,5.9 1.3,9.1 0.4,4.4 1.6,9 1.6,13.7 1.1,0.9 0.4,2.7 0.6,3.6 3.6,6 1.8,13.5 5,19.5 -0.2,2.7 1.1,5.5 1.3,8.1 1.8,3 1.9,6.8 2.3,10 0.7,1.1 1.3,2.4 0.9,3.5 0.9,1.9 1.3,3.6 2,5.7 -0.2,2 1.1,3.6 0.5,5.8 0.9,1.1 1.3,4.8 1.6,5.4 0.4,0.3 1.5,0.3 1.3,1.2 -1.8,2 -16.9,-4.6 -22.7,-6.6 2,10.1 5.1,20.1 7.8,30 0,3.5 1.6,6.3 2.1,9.6 2.4,7.9 3.1,16.2 6.3,23.4 1.6,7.5 2.9,15.6 4.7,22.6 3.6,0.8 7.4,1.7 11.2,1 1.9,1.9 0.7,5 1.4,7.7 0.4,7.7 2,14.6 3.2,22.3 -1.2,0.4 0,1.3 0.2,2 -0.7,3.1 1.1,6.5 0.6,9.7 1.2,5.8 1.6,11.7 2.3,17.5 0,2 0.9,4.5 0.9,6.8 1.8,0.9 -0.2,2.4 0.7,3.6 0.9,3.8 0,6.5 1.1,10.5 0.4,2.5 -0.4,3.7 -0.2,5.9 4.9,3.2 11.9,5.2 15.3,9.9 0.7,0.9 1.6,0.2 2.7,0.7 0.4,0.9 1.6,1.5 2.4,1.3 5,2.7 9.5,6.5 14.4,8.6 0.9,1.5 4.1,1.8 5.2,3.4 0.3,0 1.2,0.9 1.1,0.9 0,0.2 0.1,0.6 0.5,0.4 1.8,1.1 3.4,2.7 5.8,3.2 0.7,0.8 1.4,1.3 1.2,2.4 -1.4,1.4 -3.2,-0.6 -4.8,0 -3.6,0.3 -7.2,0.5 -10.5,-0.2 -1.2,1.4 -2.7,-0.9 -3.9,0.2 -2.4,0.9 -3.6,-1.6 -5.6,-0.2 -2.5,-1.1 -6.1,-0.4 -7.9,-2.2 -2.9,1.1 -4.5,0.2 -7.2,-0.9 -1.7,0.4 -3.8,0.7 -5.3,-0.3 -1.8,0.2 -2.1,-0.7 -3.7,-0.7 -0.8,-0.8 -1.8,0.9 -2,-0.6 -7.2,-0.2 -13.5,-3.2 -20.7,-3.2 -0.9,0 -1.5,-0.7 -2,-1.3 3.1,-3.9 6.3,-7.4 9,-11.3 1.6,-3.3 4.1,-6.5 6.8,-9.6 -0.1,-1.2 -1.6,-2.5 -0.5,-3.8 -2.2,0 -0.5,-2.1 -1.4,-2.3 0.7,-0.9 -0.9,-0.7 -0.9,-1.4 -0.6,-1.8 -1.5,-3.8 -1.8,-5.6 -1.3,-2 0.3,-4.7 -2.4,-6.3 0.6,-0.2 0,-1.1 -0.3,-1.1 -0.6,-1.6 -0.2,-2.9 -1.7,-4.3 0.6,-0.9 -0.9,-1.8 -1,-2.7 -4.2,-12.4 -9.8,-23.6 -14.8,-35.6 -2.2,-3.8 -3.6,-6.2 -5.4,-10.5 -1.8,-3.2 -3.6,-6.8 -6.3,-9.7 -0.7,0.2 -0.7,-0.2 -0.5,-0.5 1.9,-1.5 4.6,-2 7,-2 0.3,-0.4 2.7,0 1.6,-1.7 -0.7,-1.6 -1.8,-3 -2.3,-5.3 -0.9,0 -1.3,-1.8 -1.7,-2.7 -9.7,-16.6 -17.2,-34.8 -27.5,-51 -7.7,-13.5 -14.6,-27.9 -23.9,-40.8 -2.4,-0.6 -6,-1.1 -7.8,-0.8 -2.1,-0.9 -4.8,-0.7 -7,-1 -4.5,-0.4 -9.7,-1.7 -14.2,-2.4 0,-0.9 -1.3,-0.7 -1.6,-0.3 -3.5,-1.1 -8,-0.8 -11.6,-1.5 -0.1,-0.7 -0.7,-0.5 -1,-0.2 -0.9,-0.9 -1.7,0.4 -2.9,-0.3 -19.8,-1.7 -36.2,-2.5 -54,-1.8 -16.2,9.3 -30.4,21.4 -44.5,33.5 -2.7,2.6 -5.4,4.8 -7.5,7.3 -10.8,9.6 -19.8,20.7 -30.1,30.6 2,2.7 5,-0.5 6.8,2 2.4,0.2 4.2,0.9 6.5,0 0.6,-0.3 0.7,0.7 1.3,0.9 0.2,2.3 -2.9,2.2 -3.3,4 -16.5,10.8 -27,26.4 -36.9,41.7 -8.1,11.6 -14.9,24.5 -19,38.2 -1.1,3.1 -2.4,6.6 -4,9.7 -0.5,5.1 -2.3,9.9 -0.5,15.1 0.9,3.5 0,7.6 1.4,10.8 0,1.8 -0.4,3.8 -1.3,5.1 -1.9,-2.6 -4.3,2.5 -6.3,-0.4 -1.9,0.4 -3.4,-0.9 -5.4,0.2 -1.2,-1.1 -3,0.4 -4.3,-0.4 -14.9,0.2 -29,-0.1 -43.4,-1.2 -0.3,0.7 -0.9,0 -1.2,0 -2.2,0.2 -4.2,0.5 -6,0 -2.1,0.7 -5,0 -7.5,0 -10.1,-0.9 -17.7,0 -27.6,-1.6 -0.1,-0.4 -0.9,-0.6 -0.7,-1.1 6.1,-3.3 13.2,-2.9 20,-4.7 6.1,-2.2 13.1,-2.7 19.1,-4.5 1.4,0 1.8,-0.2 3,-0.7 17.3,-3.4 35,-7.2 51.9,-12.1 1.8,-11.3 3.4,-23.4 6.1,-34.6 2.7,-19.9 7.9,-37.7 13.1,-57 -0.1,-3.1 2,-5.6 1.5,-8.5 1.1,-1.4 3.8,-0.7 4.8,-0.5 3.5,-0.9 7.4,-0.4 11,-0.5 5.1,-7.1 6.7,-15.3 11.5,-22.5 8.5,-14.8 16.1,-30.3 26.1,-44.5 -6.4,0.5 -12.4,4 -19.4,3.2 -0.5,-1.2 1.1,-2.5 -0.2,-3.6 3.4,-6.8 8.7,-12.9 12.6,-19.4 5.8,-6.3 9,-12.1 15.7,-17.8 4.8,-9.4 13.1,-16.8 18.7,-24.5 17.5,-21.6 36.9,-41.8 54,-62.6 7.2,-9.8 15.8,-19 23.6,-28.5 5.6,-7 11.9,-13.1 18,-20.5 15.1,-18.5 31.8,-38 47.7,-56.9 -1.1,-0.9 -2,-1.4 -2.2,-2.7 -2.3,-2 -5,-4.1 -7.5,-5.7 -0.8,-2 -3.8,-2.4 -4.5,-4.4 -2.6,-3.2 -6.5,-4.5 -9.2,-8.1 -8.7,-7.9 -19.1,-14.5 -27.4,-22.3 0.4,-1.1 -0.7,-0.9 -1.1,-1.1 -10.2,-8.6 -18.3,-17.3 -28.9,-25.3 0.1,-0.4 -0.4,-0.4 -0.2,-0.6 -2.9,-2.3 -6,-4.3 -8.1,-7.2 -1.3,-0.7 -2,-1.2 -3.3,-2.3 -8.1,-6.5 -16.3,-14.2 -23.9,-20.7 -2.5,-3.6 -6.8,-6.7 -10.1,-10.7 -2.3,-1.2 -3.9,-3.7 -6.3,-4.8 -3.2,3.1 -6.3,5.9 -8.8,9.3 -2.3,1.3 -4.1,1.1 -6.7,1.1 -0.1,-1.2 -1.6,-0.3 -2.1,-0.9 -4.2,-5.4 -9.9,-9.9 -14.8,-14.9 -3,-3.4 -6.1,-7 -9.5,-9.9 -8.7,-8.5 -17.1,-17.1 -25.4,-25.2 -17.6,-19.1 -36.4,-35.5 -56,-53.1 -15.6,-17.3 -35.8,-28.8 -52.9,-46.3 -1.1,-1.2 -1.3,-2.8 -0.5,-4.1 -0.2,-0.2 -0.4,-0.4 -0.6,-0.7 4.2,-9.4 7.9,-18.9 14.2,-27.2 4.5,-9.2 11,-16.6 15.3,-25.9 2.4,-0.4 2,-4.5 4,-1.6 0.5,5.9 4.7,11.7 6.5,17.4 -0.6,1.1 0.9,1.8 1.1,2.5 1.9,6.2 4.6,11.9 5.9,18.2 0.4,0 0.5,0 0.7,0 2.2,-3.8 6.3,-6.6 8.5,-10.6 1.4,0 2,-2.2 3.6,-1.4 1.1,3.7 5.4,7.1 7.4,11.1 2.5,4 6.3,8.1 7.5,12.8 1.8,0.7 0.2,2.5 0.7,3.6 -4.3,4.3 -6.8,9.9 -12.2,12.6 -4.9,5.2 -10.3,10.6 -14.6,16.2 5.6,4.5 10.5,8.1 16,13 1.5,0.3 1.8,1.6 3.5,1.9 1.2,2.2 4.5,2.2 5.9,3.8 2.2,2.4 5,3.3 7.2,5.4 1.4,0.4 2.5,2.5 4.1,3.1 0.6,1.1 2,2.3 3.5,2.3 1.4,2.5 5.2,2.5 6.6,5.1 2,1.2 4.3,3.2 6.3,3.9 2.9,2.2 6.5,4.9 9.4,7 2.3,1.1 3.8,2.9 6.5,3.8 4.3,3.8 9.7,6.1 14.5,8.8 5.4,4.7 11.9,7.4 17.5,11 2.5,0 4.5,2 6.8,2.9 1.7,1.8 4.4,2.2 6,4 1.6,-0.8 1.2,2.5 2.3,0.8 1.3,2.2 3.6,1.7 4.7,4 2.5,0 3.4,3.1 5.8,3.4 1.6,1.5 4.8,1.3 6.4,3.3 4,0.9 7.8,3.4 9.9,6.8 -1.2,3.8 -0.9,7.9 -4.5,10.8 0.6,0.9 1.5,2.2 2.6,2.2 2.5,2 4.3,3.8 7.2,4.8 1.4,2 4.1,2.6 5.7,4.4 3.8,1.6 6.3,5.5 10.3,7 0.3,1.1 1.8,1.4 2.7,2.1 2.1,1.3 2.7,4.2 5.2,4.2 2,2.3 4.7,2.3 6.1,5 1.6,1.1 4.2,2.7 6,4.3 2.3,1.1 4.1,2 5.9,3.8 2.2,-0.5 2,2.5 4.1,2 4.4,3.4 9.2,6.1 13.2,9.7 3.2,0.7 4.8,4.5 8.1,6 3.2,1.6 5.4,5.2 9.3,5.9 2.6,1.8 5.8,2.5 7.6,5 1.8,0 2.7,2.6 4.5,1.7 5,1.4 8.6,5.4 13.1,7.1 0.2,1 1.5,1.9 2.2,1.1 3.6,-1.8 7.4,-1.8 11.2,-3.2 2.5,-0.5 4.3,0.2 6.6,-0.7 0.2,-0.6 0.7,-0.2 1.1,-0.6 -8.6,-8.6 -16,-16.5 -23.2,-24.8 -3.1,-2.3 -6.5,-6.5 -9.9,-8.5 -13,-12 -28.3,-26.6 -41.4,-39.6 -7.4,-5 -13,-12.9 -20.4,-18 -0.1,-1 0.2,-2.3 1.3,-2.5 5.4,-0.2 10.3,0.6 15.7,1.6 1.4,0.4 2.8,0.9 4.3,2 3.8,0.6 7.5,1.6 11,3.4 0.7,-0.2 0.9,1.1 1.6,0.6 0.5,-0.2 0,-0.8 0.5,-1.1 0.4,-7 -1.8,-13.7 5.2,-17.8 2.4,-1.5 4.7,-2 7.2,-1.6 6.5,2.5 9.2,7.5 13.4,12.7 0,3.6 3.2,6.2 5.7,8.9 1.6,0.5 2.7,1 4.2,-0.2 2.7,-4.7 2.5,-9.7 4.3,-15 2,-3.2 5.4,-6.1 8.8,-5.5 -0.2,0.1 0.2,0.3 0.2,0.5 2.3,-0.9 4.8,1.8 6.5,3.6 0.1,2.3 2.1,3.4 3.2,5.4 1.4,3.6 1.6,6.8 3.2,10.1 -0.7,2.7 1.3,5.2 0.6,8.1 -0.2,2.5 2.5,4.3 1.8,7.4 2.5,2.1 4.3,7.9 9,6.8 0,-0.2 0.2,-0.4 0.3,-0.4 -0.9,-11.8 -0.5,-24.6 -1.2,-36.3 -1.1,-12.4 -2.2,-25 -4.2,-36.7 -2.5,-9.8 -1.6,-19.8 -4.1,-29.6 -0.2,-0.9 -0.4,-2.1 -0.5,-3 -0.6,-5.4 -0.6,-9.7 -2,-14.6 -2.2,-7.6 -2.5,-15.7 -5.6,-23 -4.1,4.1 -6.7,8.8 -10.8,12.7 -0.4,1.3 -2,1.8 -2.5,3.3 -7,8.1 -15.1,18.9 -22.2,27.5 -0.1,2.5 -3.6,2.5 -3.7,4.9 0,-3.1 -2,0.9 -2.6,-2 -0.3,-2.2 -0.1,-4.5 -1.8,-6.3 -5,-25.2 -10.6,-49.9 -19.4,-73.8 0.7,-1.4 -1.1,-1.8 -1.1,-3.1 -3,-10.9 -7,-20.8 -11.3,-31.3 -3.3,4.5 -5.1,8.3 -7.8,12.8 -2.5,5.2 -5.4,10.4 -8.6,14.9 -0.7,2.2 -3.1,4.4 -4,6.9 -2.8,7.5 -7.3,12.6 -9.7,20.3 -3,6.3 -5.2,13 -8.3,19.3 -1.6,5.9 -5.2,10.9 -6.8,16.9 -4.1,7.2 -5,14.8 -8.5,22.1 -1.6,6.5 -3.2,13.4 -6.8,18.6 0,0.3 0,1.1 -0.5,1.2 -3.3,-1 -0.8,-5.7 -1.3,-8.6 1.6,-12.8 1.3,-26.8 5.6,-39.3 0.5,-5.5 2.3,-11.3 3.6,-16.9 4.3,-17.6 10.2,-34 15.3,-51.6 3,-13.9 9.7,-25.6 14.4,-38.9 4.5,-8.3 9,-18.2 16.2,-24.8 0.2,-2.2 2.9,-2.4 3.2,-4.5 2.7,0.1 3.8,-4.2 6.3,-1.1 15,19.2 22.2,42.5 31.2,64.6 3.4,10.4 8.4,20.3 12.2,30.6 0.9,1.6 1.6,1.3 2.2,2.9 1.6,-0.9 2.1,-2.7 3.7,-4 2.2,-3.9 5.6,-7.2 8.3,-11 4.3,-2.1 -1.1,-5.5 -1.1,-8.6 -3.7,-12.2 -10.2,-22.7 -15.6,-34.4 -5.4,-10.3 -11,-20.1 -16.8,-30.4 0.4,-1.4 -1.2,-1.6 -1.6,-2.7 -7.5,-13 -19.4,-27 -28.1,-40.9 -3.9,-7.7 -11.5,-13.8 -16.9,-20.8 -2,-1 -3.8,-3.5 -5.7,-5.3 -1.8,1.7 -3.8,4.5 -6,6 -1.2,1.6 -2.7,2.5 -4.7,3 -4.3,0.6 -7.3,-0.3 -10.6,-2.7 -2,-2.3 -4.7,-4.5 -4.5,-8.1 -2,-0.5 -1.4,-3 -2.1,-4.3 0.5,-2.5 -0.9,-4.3 -1.3,-6.5 -1.1,-0.9 -2.2,-1.9 -3.2,-1.4 -8.3,3.1 -12.8,10.6 -18.4,17.3 -1.6,1.2 -3.4,2.3 -4.5,3.4 -2.2,0.4 -6.1,2.3 -8.5,0 -2.5,-0.2 -3.7,-2.5 -5.5,-4.1 -1.3,-0.2 -1.7,-1.5 -2,-2.4 -3.8,-7.5 1.2,-15.3 2.3,-22.7 1.3,-2.3 1.8,-5 3.3,-7.2 -4,0.6 -8.5,1.1 -12.8,1.1 -2.5,0.4 -6.5,2.4 -8.8,0 -1.8,-6.1 1.2,-12.9 2.3,-18.7 1.3,-8.3 5.4,-16 7.4,-24.1 -2.9,-0.6 -5.6,0 -8.5,0.3 -2.9,-1.8 -2.1,-6.6 -3.8,-9.5 -5.5,-24.7 -5.2,-48.8 -1.9,-75.1 1.6,-4.8 1,-10 2.7,-14.7 2.1,-9 3.2,-17.5 7.3,-26 2.2,-0.5 1.8,-4.3 4.9,-3 1.1,2.3 4.1,-0.2 5,2.2 8.1,2.5 16.8,7.1 23.4,12.5 1.5,0 2.4,1.7 4.2,2 2.5,5.4 4.5,-2 6.6,-2.1 15.7,-24.9 34.4,-44.7 50.8,-67.9 1.4,-1.8 4.1,-1.8 6.1,-3.2 14.1,-3.8 30.6,-6 43.9,-7.4 18.4,-2.4 37.3,-2.5 56.2,-5.2 0.5,0.9 1.3,0.5 1.6,0 4.7,-0.4 9.9,-0.4 14.4,-0.6 10.8,0 20.7,-1.1 31,-1.6 0.7,1.3 0.9,-0.4 1.6,-0.2 3.8,-0.2 7.9,0.4 11.3,-0.7 4.2,-4.3 7.4,-8.6 11,-11.5 0.7,-0.6 1.3,-2 2.2,-2.5 4.5,-3.8 9.3,-8.3 13.8,-11.6 0.4,-0.3 1.7,-0.1 1.3,-0.9 2.7,-2.6 5.8,-3.2 8.3,-6.3 1.6,-0.7 3.2,-1.8 4.7,-2.5 4.5,-4.1 9.5,-7.5 15.3,-10.4 1.9,-0.7 4.1,-2 6.1,-3.1 0.2,0.2 0.3,0.6 0.5,0.6 2,-3.1 6.3,-3.1 9.2,-4.4 5.6,-2.1 11.9,-3.7 17.1,-5.2 7.2,-2.3 14.6,-4.3 22.7,-5 4.5,0 9.5,0.5 13.7,1.8 z" />
    <g
       id="&lt;Group&gt;">
      <path
         id="path7"
         class="s1"
         d="m 635.9,251.7 c 2.2,-1.1 3.4,0.3 5.6,-0.4 -2.2,2.5 -2.7,5.8 -5.8,7.4 -7,8.6 -14.4,20.3 -19.6,29.3 -3.8,4.5 -5.4,9.8 -8.6,14.8 -2.7,4.7 -4.4,8.1 -6.3,13 -0.2,2 -1.8,3.9 -2.4,6.1 -2,3.1 -2.7,6.5 -4.5,9.7 -2.1,5.1 -3.8,10.1 -5.2,15.1 -5,15.5 -9.9,31.2 -11.5,47.4 -1.5,9.7 -2.5,18.3 -1.6,27.9 1,6.5 1,11 2.5,17.1 0.5,4.3 0.5,8.3 1.8,12.8 0.5,0.7 0.2,1.9 0.3,3.2 1.8,4.7 3.3,9 4,14 -1.3,0.2 -2.5,-0.9 -3.2,0.2 -1.7,-0.5 -3.1,-0.7 -4.4,-0.2 -1.2,-0.9 -3.9,-0.1 -5.2,-0.7 -18,-0.3 -36.7,0.2 -54.9,0.9 -0.2,0 -0.2,0 -0.2,0.2 -10.2,-0.2 -19.6,1.3 -30,1.3 -0.2,0.1 -0.6,0.7 -0.4,0.1 -3.8,-0.1 -10.1,0.8 -13.5,0 -1.1,-0.1 -2.7,0.4 -3.6,0.6 -1.8,-0.6 -3.8,-0.9 -5.4,0.2 -21.4,-1.1 -42.6,-0.6 -64.8,-1.3 0.6,-8.8 3.1,-17.3 4.5,-25.9 0.6,-2.4 2.4,-2.2 2.5,-4.5 10.8,1.1 20.7,0.3 31.2,2.1 14.7,1.5 27.2,5.3 42.1,6.2 0.2,0.9 1.6,0.1 1.8,0.7 4.9,1.2 9.7,2.9 14.6,2.1 -0.2,0.8 0.5,1.5 1.1,0.9 2.8,-0.7 4.8,-3.9 5.7,-7 2.4,-1.1 1.8,-3.9 3.4,-5.6 1.8,-1.9 2.2,-3.6 3.3,-5.9 2.3,-2.3 3.6,-5.4 5.7,-8.1 -0.3,-2 2.4,-2.5 2,-4.3 3.1,-5.4 6.1,-11.5 8.7,-17.5 3.4,-0.9 1.2,-5.2 5.4,-1.8 0,-0.3 0.5,0 0.9,-0.2 0.1,0.6 0.3,2.2 1.2,1.3 2.5,-4 4.7,-8.3 6.1,-13.1 1.7,-1.5 1.1,-4 1.8,-5.8 2.2,-7.6 5.1,-15.8 4.2,-23.9 -1.1,0.1 -1.1,1.7 -1.5,2.7 -2.8,11.8 -6.4,23.2 -13.1,33.3 -4.3,-1.8 -6.1,-4.7 -10.1,-6.5 -2.5,-1.5 -4.8,-2.4 -7.2,-4.2 -2.1,-0.9 -4.7,-3.4 -7,-4.3 -3.4,-1.4 -6.1,-3.9 -9.9,-5.2 -0.5,-2.3 -4.1,-2 -5.2,-4.5 -1.3,-0.4 -1.8,-2 -3.3,-2.3 -4.1,-1.3 -7,-4.9 -10.9,-6.3 -0.9,-2.6 -4.4,-2.6 -5.8,-4.5 -1.1,-0.6 -2.2,-1.5 -3.1,-2.2 -1.8,-0.4 -2.7,-2 -4.3,-2.5 -4.5,-1.8 -7.2,-5.3 -11.5,-6.3 -3.2,-3.5 -8.1,-6.1 -12.1,-9.2 -0.3,0.2 -0.1,-0.4 -0.1,-0.6 1.6,-1.6 2.1,-3.4 3.6,-4.3 2.1,-3.9 5.5,-7 7,-11.5 1.2,-0.5 0.7,-2.5 2.1,-3 -0.3,-0.2 0.9,-0.8 1.1,-1.5 0.7,-0.5 0.6,-2.3 1.8,-2.3 4.2,-5.2 7.4,-11.6 11.5,-16.2 1.7,-2.2 2.9,-4.4 4.7,-6.2 0.9,-2.7 3.6,-3.7 4.2,-6.4 4.1,-3.8 6.6,-9.8 10.6,-14.1 1.4,-1.2 3.2,-2.7 4.3,-4.5 0.4,0.8 0.9,0.8 1.3,0 0.1,-0.2 0,-0.3 -0.2,-0.3 1.6,-0.4 3.2,-1.1 4.7,-0.7 1.4,-1.3 3.2,-0.2 4.8,-1.1 2.7,-0.6 4.3,-0.6 7.4,-1.8 0.7,1.2 1.3,-0.4 2.2,-0.2 1.4,-0.2 2.8,-1.4 4.5,-0.6 1.4,-0.5 3.6,-0.7 5.2,-1.6 3,0.8 6.5,-0.5 9.3,0 4.7,-0.9 9.2,-1 13.9,-2.1 2.9,0.2 7,-0.9 8.8,-2 1.8,-0.9 2.2,1.2 4,0.5 1.4,-0.5 3,-0.7 4.3,-1.6 1.1,1.5 3.4,1.3 5,0.9 2.7,-0.4 5.1,-0.9 8.1,-1.1 2.6,-0.5 6.9,-0.7 9.6,-1.2 7,-0.9 14.2,-1.8 21.4,-2.9 0.4,0.2 1.4,-0.2 1.3,0.5 2.3,0.4 4.3,0.2 6.3,-0.5 1.9,0.9 4.3,-0.4 6.4,0 2.7,0.7 5.8,-0.5 8.7,-0.2 2.5,0.2 5.7,-1.4 7.9,0.2 z" />
      <path
         id="path9"
         class="s1"
         d="m 844.5,262 c 2.4,0.3 3.6,1 6.1,1 2,4.3 2,9.6 5.1,13.5 1.4,7.4 3.6,15.2 6.1,22.3 0.9,1.7 0.9,4 1.8,5.4 1.1,8.7 4.7,16.4 5.2,25.1 0,2.1 1.5,2.9 2,4.5 -0.9,2.7 1.4,5.2 1.1,7.9 1.8,2.1 0.7,6.1 2.5,8.1 0.2,2 0.4,4.3 0.7,6.5 1.5,2.7 0.6,4.7 1.5,7.5 0.3,0.9 0.7,2 0.7,3.1 0,1.4 0.7,2.5 1.4,3.9 6.3,23.1 7.4,48.1 14.2,71.5 0,11.2 3.3,21.6 4,32.6 -0.5,1.8 -0.2,2.9 -0.2,4.7 -6.5,10.4 -16.2,17.6 -24.1,26.4 -10.6,11.4 -22.7,24.3 -31.5,37.5 -14.4,18.7 -28.8,37.6 -42.1,56.9 -8.3,12.6 -16.2,24.3 -24.9,36.5 -4.3,6.5 -9.1,14.2 -13.3,20.9 -2.7,2.9 -4.8,6.8 -6.6,10.2 0,0 0,0 0.1,0.2 -4.8,4.9 -8.1,11 -12,16.2 -8.7,12.4 -17.1,25 -24.3,38.2 -3.1,3 -6,7.9 -8.5,11.7 -0.7,2.5 -2.3,5 -3.6,7.7 -0.9,2.9 -3.8,4.2 -4.1,7.2 -1.6,2.5 -2.2,4.9 -4.2,7.6 -5.2,10.2 -11.8,20.3 -17.8,29.7 -3.2,4.8 -5.9,10.4 -8.8,15.5 -0.5,0.1 -0.9,1.6 -1.6,2.3 -11.7,22.3 -20.2,46.3 -31.2,69.1 -1.6,1.3 -1.2,3.6 -2.5,4.9 0.4,1.6 -1.1,2.9 -1.4,4.3 -0.6,3.4 -3.3,5.9 -3.1,9.5 -4.8,-0.1 -9,2.2 -13.1,2 -0.7,0.7 -1.6,0.2 -2.5,0.9 -2.2,-1.2 -3.8,0.7 -6,0.2 -0.3,0.4 -0.5,0.4 -0.9,0 -5.9,0 -10.1,2.2 -16.5,1.4 -1.1,0.9 -2.7,1.5 -3.8,0.8 -0.9,-0.9 -1.3,-1.3 -1.6,-2.4 -2.4,-3.6 -6.5,-5 -8.3,-8.4 -6.9,-7.4 -15.5,-16.6 -22.9,-24 -2,-2.7 -4.7,-3.9 -6.3,-6.6 -1.4,-0.8 -2.9,-1.1 -3,-2.7 -3.3,-2.2 -5.3,-5.4 -8.5,-8.1 -1.4,-0.2 -1.1,-2.4 -2.7,-2.2 -1.4,-1.6 -3.2,-3.2 -5,-4.3 -2.4,-1.5 -5.4,-5.2 -8,-6.9 -1.9,-1.2 -2.5,-3.6 -5,-3.9 -3.2,-4.9 -10.1,-8.5 -14.4,-12.4 2.2,0.5 4.7,2.1 7,3 7.2,3.1 14.4,6 22,8.5 2.3,1.6 5.6,2.7 8.3,4.1 26.4,11.9 51.1,27.2 77.5,38 2.2,1.1 4.5,2.2 7.1,3.1 1.2,-1.5 4.5,0.9 4.8,-2 2.2,-5.1 2.9,-10.6 5.2,-15.7 0.9,-5 3.1,-9.7 5.1,-14.4 0.9,-3.2 1.4,-6.3 2.7,-9 -0.2,-2.5 1.2,-4.7 0.9,-7 2.1,-4.3 2.7,-9.5 4.3,-14.2 1.3,-3.1 1.8,-6.9 3.6,-9.9 2,-4.2 2.2,-9.4 5,-12.8 -0.1,-2.9 2.9,-5.2 3.3,-8.6 2,-3.5 3,-5.3 4.3,-8.9 2,-1 0.4,-3.2 2.3,-3.7 1.3,-2.7 1.8,-5.4 4,-7.6 1.3,-4 2.3,-8.5 4.9,-11.9 0.1,-2.5 1.8,-4.7 2.5,-6.8 1.2,-1.3 0.7,-2.7 2.3,-4 0.7,-3.8 3.6,-6.1 4.3,-9.9 1.7,-2.9 3.8,-5.9 3.8,-9.7 0.9,-1.4 2.2,-2.5 2,-4.3 2,-2 1.4,-4.9 3.1,-6.9 1.9,-1.9 3.2,-4.5 3.2,-7.3 2.9,-2.6 3.6,-7.2 5.8,-9.9 2.1,-2.2 2.8,-6.5 3.7,-9.4 1.5,-1.1 1.5,-4.1 2.7,-5.9 0.8,-3.3 2.2,-6 2.9,-8.7 1.6,-0.9 0.4,-3.4 2,-4.1 0,-0.7 0.9,-1.8 0.9,-2.9 0.5,-1.1 0.9,-2.5 1.6,-3.4 1.6,-2.4 2,-5.6 4.2,-8.3 0.3,-1.1 0.9,-2.7 1.2,-3.4 1.5,-2 2.9,-4.2 3.4,-5.8 1.7,-3.8 4.5,-7 6.2,-10.8 0.9,-3.9 3.4,-5.7 4.5,-9.3 1.6,-2.2 2.8,-5.3 3.9,-7.8 0.6,-0.2 1.1,-2 2,-2.5 0.9,-2.7 2.3,-5.8 3.8,-7.9 0,-1.3 1.1,-2.4 1.8,-3.4 3,-4.7 5.4,-9.9 7.7,-14.4 0.2,0 0.4,0 0.4,0 2.1,-4.9 4.5,-8.9 7.2,-13.5 -0.6,-2.6 2.5,-2.9 2.1,-5.1 1.5,-1.8 3.3,-5.2 3.5,-6.3 0.7,-0.9 1.8,-1.8 1.8,-3 0.9,0.7 1.6,-1.5 2.3,-2.4 0.2,-1.2 1.4,-2 1.8,-3 1.1,-2.6 2.9,-4.7 3.4,-7.4 1.8,-1.6 2.4,-4.3 4.5,-6.1 1.3,-2.4 2.5,-4.9 4,-6.9 6.1,-9.9 11.7,-19.1 16.4,-29.9 1.6,-0.5 0.3,-2.7 1.6,-3.6 0.9,-2.3 -2.4,-0.7 -2.4,-2.1 -0.5,-0.6 -1.6,0.2 -2.5,0.3 -12.6,-3.2 -25.9,-6.1 -38.9,-6.8 8,-7.2 15.2,-15.7 22.5,-24.8 0.2,-1.8 2.2,-2.9 2.9,-4.7 2,-2.4 4,-6.1 6.1,-8.8 7.6,-12.1 14.4,-24.9 19.3,-37.3 3.6,-5.6 4.9,-11.9 7.7,-17.6 0.6,-4.2 3.1,-7.1 3.1,-11.6 1.4,-1.2 0.5,-3.8 2,-5 1.1,-5.9 3.4,-10.6 5,-16.8 1.5,-5 2.7,-10.2 3.3,-15.3 1,-1.9 1.4,-4.6 2.1,-7.2 2.5,-10.4 4,-23 5.4,-34 -0.3,-1.6 0.9,-3.8 0.7,-5.4 1.1,-5.7 0.6,-10.8 1.3,-15.8 -0.4,-6.1 -0.7,-12.4 -1.3,-18.4 0.8,0 2.4,0.2 2.6,-0.2 0.5,0.8 1.4,0.6 2.1,1 z" />
    </g>
    <path
       id="path12"
       class="s0"
       d="m 794.7,496.1 c 0,0.6 -0.6,1.8 -1.3,2.2 -6.8,11.5 -14.4,21.6 -20.3,32.9 -2,4 -5.3,8.1 -6.5,12.3 -6.3,10.6 -12.8,20.3 -17.5,31.3 -6.6,11.9 -12.8,23.2 -18.7,35.3 -2.3,5 -5,10.1 -7,15.3 -0.9,1.1 -2,2.7 -2,4.1 -4,6 -7.4,13.9 -10.8,20.9 -0.4,2.9 -2.3,4.8 -3.2,7.6 -0.8,2.7 -1.8,5.2 -2.4,7.5 -2.3,2.5 -3.2,6.3 -4.3,9.4 -2.2,3.9 -4.5,8.1 -5.8,12.6 -2.3,4.7 -5,9.3 -6.6,14.6 -0.9,1.2 -2.2,2.8 -2,4.3 -2.3,3.8 -5.2,8.1 -6.5,12.8 -1.1,1.8 -1.8,3 -1.6,5.2 -2.7,0.9 -2.9,4.8 -4.5,7.3 -6.5,17.5 -15.3,34.6 -21.6,51.5 -2.7,4.9 -4.7,10.3 -7,15 2.5,-16 1.8,-33 3.8,-49 -0.8,-3.4 -0.4,-5.9 0,-9.3 -1.5,-1.7 1.8,-4.2 -0.2,-6 0,-2 0.2,-4.5 -0.4,-6.5 0,-1.4 0.2,-3.6 0.4,-5.2 -0.2,-14 -0.7,-32.6 -0.7,-48.2 -1.1,-8.8 -0.8,-17.8 -2.2,-26.8 0,-4.4 0.2,-8.1 -0.7,-13 1.1,-1.3 -0.6,-2.5 -0.4,-4 0.9,-14.2 -1.8,-28.6 -3.4,-43.2 -2.2,-7 -2,-14.7 -5.4,-21.4 -0.5,-0.9 -1.1,-0.9 -2,-0.7 -2.7,1.3 -5.6,4.8 -8.1,7.2 -1.1,2 -3.2,4.7 -4.5,6.6 -2.1,2.4 -4.8,4.7 -5.9,7.8 -5.1,5.6 -11.4,11.3 -16.4,17.8 -12.1,12.1 -21.4,25 -32.8,38.4 -3.4,-9.2 -8.8,-17.9 -12.2,-27 -1.1,-0.2 0,-1 -0.5,-1.5 -6,-9 -9.2,-18.3 -15.7,-27 -9,-17.3 -20.3,-35.6 -31.7,-52 -8.1,-11 -17.6,-21.8 -27.3,-32.2 2.7,-3.4 4.5,-6.1 7,-8.8 0.7,0 0.2,-1 0.7,-1.1 2.7,-0.2 6.3,-0.6 5.9,3.6 0.8,6.5 0,13.7 4,19 3.6,3.8 10.1,6.4 15.1,6 4.5,-0.7 9.4,-3.4 11,-7.9 1.6,-0.9 1.6,-3.4 3.1,-5.1 -0.2,-1 0.9,-1 1,-1.8 0.9,-5.2 4.2,-10 9.4,-11.8 2.2,-0.4 5.2,-1.5 6.8,0.7 8.5,10.6 -1.2,31.7 16.1,35.6 1.9,0 3.4,2.2 5.5,0.6 0.8,0.5 2,0.9 3.1,0.3 1.4,-1.1 4,-1.1 4.7,-3.2 3,-1.3 4.7,-5.4 6.1,-7.9 2.2,-6 2.9,-13 7.4,-17.5 0.9,-1.3 0.9,-3.2 2.7,-3.8 3.2,-0.3 5.4,1.6 7.2,3.3 7.5,10.9 5.4,31.3 22.7,33.1 4.3,0.5 10,-1.5 12.4,-5.4 0.9,-2.9 2,-5.2 2.5,-8.3 6.8,3.2 14.6,5.4 22,6.1 3.6,3.1 10.6,-2.9 10.6,3.8 0.7,0.5 0.3,2 1.2,2.7 0.8,4.9 6.3,7.5 10.5,9.7 1.2,0.4 3.8,0.9 4.8,0.4 2.4,-0.7 6,-0.2 7.1,-2.9 2.3,-1.3 3.4,-2.9 5.4,-4.7 1,-0.9 0.1,-2.5 1.6,-3.6 -0.6,-1.2 1.2,-1.4 1.1,-2.3 0,-3.1 1.8,-6.3 0.9,-9.4 4.6,-1.8 10.4,-3.4 15.3,-5.4 2.7,-0.9 5.4,-2.3 8.1,-3.4 1.8,4.1 -0.4,9.2 1.8,13.1 0.3,6.9 0.9,15.2 8.6,17.7 4.3,2.1 9.9,1.1 13.3,-2.2 3.8,-2.5 2.5,-7.5 7,-9.3 0,-0.9 1.7,-0.9 1.3,-2 -0.2,-0.6 -0.4,0.3 -0.7,0.2 2.9,-2 4.7,-6.2 5,-9 3.3,-2 4.2,-5.6 6.9,-8.1 2.3,-5.3 7.7,-8.5 10.4,-13.2 3.2,-1.8 5.2,-4.3 8.1,-6.6 2.2,-2.2 4.5,-0.2 7,0.3 1.5,0.7 3.1,0.6 4.2,1.6 z" />
    <path
       id="path14"
       class="s0"
       d="m 614.1,641.4 c 1.5,11.2 5.1,21.2 5.2,32.8 0.4,1.2 0,2.5 0.4,3.9 2.3,25.8 2.9,50.1 2,76 -1.3,24.1 -2.4,47.5 -5.8,70.7 0.6,3.6 -1.1,7.9 -1.1,11.4 -0.9,-4.2 -4.5,-7.2 -8.1,-9.9 q -3.2,-0.9 -6.4,0 c -0.6,-6.5 -0.6,-10.8 -0.9,-17.5 0.9,-3.8 -2.2,-7.9 -1.3,-11.5 -1.3,-3.4 -1.1,-6.7 -1.1,-10.8 -0.7,-0.2 -0.5,-1.1 -0.9,-1.6 0.6,-1.3 0.2,-2.9 0,-4.5 -0.3,-1.7 0.2,-4.2 -1.2,-5.8 1.2,-1.4 -0.6,-4.5 -0.2,-6.7 -1.1,-2.1 0.7,-5 -0.9,-7.5 0,-1.1 1.2,-2.7 -0.2,-3.6 0.9,-0.7 -0.4,-1.6 -0.4,-2.4 -0.9,-7.5 -2.1,-16.9 -3.7,-24.6 -0.6,-2.9 -0.6,-5.6 -1.7,-8.7 -0.5,-7 -3.4,-14.7 -4.1,-22.1 -2,-4.7 -2.3,-9.9 -4,-14.8 6.3,-9.1 12.6,-16.5 19.5,-25.9 4.8,-5.7 9.9,-11.5 14.9,-16.9 z" />
    <g
       id="g38">
      <path
         id="path16"
         class="s2"
         d="m 508.6,600.2 c 3.1,4.5 4.9,10 7.4,14.9 0.2,3.1 2.9,5.2 2.9,8.6 -0.9,4 0.4,9.2 -4.1,11.2 -1.5,0.6 -2.6,1.1 -4.2,0.9 -2.9,-7 -5.2,-13.8 -9.2,-20.3 0.6,-3.8 -0.1,-7.4 0,-11.5 0,-6.7 0.2,-13 -1.4,-19.7 3.2,4.9 5.9,11 8.6,15.9 z" />
      <path
         id="path18"
         class="s2"
         d="m 497.3,596.9 c 0.5,6 -0.7,12.3 -2.2,18.2 -3.2,4.5 -5.9,9.9 -9.3,14.4 -2.4,-3 -4.7,-6.1 -7.9,-8.4 3,-8.5 5.9,-17.1 9.9,-24.9 1.2,-2.7 1.6,-5.6 3.2,-7.5 0.2,-1.5 2,-2.4 2.2,-3.6 0.7,-0.2 1.9,1.4 2.1,2.7 0,3.2 1.6,5.9 2,9.1 z" />
      <path
         id="path20"
         class="s2"
         d="m 480.2,628.1 c 0.9,0.1 0.9,1.6 1.3,2.5 -0.2,2 0.3,3.8 0.5,5.6 -3.2,5.5 -7.2,11.9 -9.5,17.4 -2.4,3.1 -3.3,6.9 -5.3,10.1 -0.7,-2.1 -7.2,-2.1 -3.2,-5.7 3.4,-11 7.7,-20.8 11.2,-31.7 0.5,-0.9 1.4,-0.6 2.1,-0.7 0.2,1 0.9,0.3 1.5,0.7 0.5,0.5 1,0.9 1.4,1.8 z" />
      <path
         id="path22"
         class="s2"
         d="m 530.6,654.5 c -0.5,3.1 -2.2,6.2 -4.7,8.1 -2.7,-0.3 -6.6,1.5 -6.6,-2.7 -2.2,-6.3 -3.3,-12.9 -6.5,-18.7 3.9,-2.3 7,-6.6 9.2,-10.6 2.1,8.3 6.1,16 8.6,23.9 z" />
      <path
         id="path24"
         class="s2"
         d="m 536.4,669.5 c 0.3,1.2 0.7,2.7 1.9,3.4 3.3,12.2 1.5,25.4 -1,36.9 -1.3,0.5 -3.1,8.3 -2.7,2 -0.6,-2 -1.1,-4.3 -1.5,-6.7 -2,-4.5 -0.3,-9.9 -3.9,-14.4 0.5,-4.3 -3.5,-7.2 -2.9,-11.7 -1.3,-3.8 -2.9,-7.4 -3.8,-11.3 1.8,-0.7 3.8,-1.8 5,-2.9 2.7,-0.9 3.1,-3.2 4.7,-5.4 1.8,3.4 1.8,6.8 4.2,10.1 z" />
      <path
         id="path26"
         class="s2"
         d="m 464.9,666.1 c 1.1,4.1 -2.7,7.1 -3.1,11.1 -2.5,5 -3.6,10.8 -5.7,16 -1.5,-0.9 -3.4,-2 -2,-3.9 0.4,-1.6 1.6,-4 2.2,-6.1 1.6,-4.9 2.1,-10.1 4.1,-14.8 -0.5,-1.8 1.6,-2.3 1.4,-4 1.3,0 2.4,0.6 3.1,1.7 z" />
      <path
         id="path28"
         class="s2"
         d="m 631.8,579.1 c 1,12.8 3,26.5 5,39.4 -0.9,2.6 0,6.3 0,9.6 1.1,3.4 -2.5,6.1 -3.6,9 -0.7,1.2 -2.2,2.9 -3.6,3.2 -2.5,0.7 -4.9,-0.3 -7.2,-0.7 -0.4,-2.7 -1.4,-5 -1.6,-7.6 -1.5,-1.8 -0.9,-5.4 -1.3,-7.7 -1.1,0 -1.6,-0.7 -2.5,-0.4 -1.1,2.2 -2.9,2.4 -4,4.3 -0.3,-2.6 -2.5,-5 -3,-7.7 -1.1,-4.1 -3.4,-8.1 -6.3,-11.1 2.5,-1.1 4.8,-3.8 5.9,-6.9 1.6,0.2 2,-2.5 3.4,-3.2 0,-0.9 1.8,-0.6 1.5,-2 4.5,-4 7.9,-9.4 11.3,-14.2 0.9,-1.5 2.7,-2.2 3.8,-3.6 1.4,1.1 0.9,-1.5 2.2,-0.4 z" />
      <path
         id="path30"
         class="s2"
         d="m 603.5,616.7 c 2.7,4 5,8.3 5.9,13 -1.2,8.1 -9.1,13.7 -13.6,20 -1.8,1.4 -2.6,3.4 -4.4,4.7 -1,-6.3 -3.9,-13.7 -9.9,-17.7 1.5,-2.5 4,-4.8 5.3,-7 1.6,-2.2 5.4,-7.2 6.8,-7.6 2.5,-1.4 4.1,-6.3 7.4,-6.6 0.3,0.9 1.6,0.9 2.5,1.2 z" />
      <path
         id="path32"
         class="s2"
         d="m 581.5,641.4 c 2.7,1.6 4.7,5.2 4.2,8.3 0.7,3.9 -0.4,9.2 -1.5,13.3 -3.7,4 -7,7.7 -10.2,12.2 -1.5,-0.7 -1.5,1.5 -2,2.2 0.4,1.4 -1.4,1.8 -1.8,3.1 -1.6,3 -4.1,4.3 -5.8,7 -1,-7.2 -2.3,-14.6 -8.2,-19.5 1.9,-3.4 5,-5.4 6.4,-8.4 -0.3,-0.7 0.9,-0.4 1.1,-1.1 1.1,-1.8 2.7,-3.8 4,-4.5 0.9,-4.3 4.7,-6.3 6.5,-9.4 1.9,-1.6 3.4,-3.4 5.7,-3.2 0.4,0.4 1.1,-0.7 1.6,0 z" />
      <path
         id="path34"
         class="s2"
         d="m 555.1,672.7 c 2.1,2.9 3.8,7.2 4.3,11.2 -0.2,3.4 0.9,8.1 -1.1,11.5 -7,9.7 -14.6,19.6 -20.9,29.9 -0.9,-1.1 0.9,-1.8 0.9,-2.9 0,-4.9 2.4,-8.8 3.1,-13.3 1.1,-5.8 2.2,-12.4 2.5,-18.4 0.2,-0.2 0.4,-0.3 0.4,-0.5 1.1,-2.9 -0.6,-7.4 2.5,-9.2 0.2,-1.3 0.5,-2.2 1.1,-3.3 2.1,-1.7 3.4,-3.5 5,-5.7 0.6,0.5 1.6,0.9 2.2,0.7 z" />
      <path
         id="path36"
         class="s2"
         d="m 454.5,696.8 c -1.7,6.9 -5.1,13 -7.4,19.5 0.2,-3.3 2.1,-6.1 2,-9.2 0.1,-2.2 1.6,-3.8 1,-5.9 1.8,-1.5 0.8,-4.9 2.7,-6 1.3,-0.3 1.1,1.3 1.7,1.6 z" />
    </g>
    <g
       id="g52">
      <path
         id="path40"
         class="s3"
         d="m 549.5,473.8 c 11,0.4 25.4,0 36.5,0 2,5.2 4.6,10.3 7.7,15 0.4,3.7 4.6,5.2 6,8.4 2.9,3.6 5.4,7.2 8.7,10.5 0.7,0 0.9,1 1.6,1.6 5,3.8 10.2,7 15.8,9.7 -1.8,3.4 1.3,8.1 -3.8,9.7 -1.8,0.5 -3.7,2.2 -5.9,1.3 -1.4,-1.8 -4.5,-1.5 -4.5,-4.5 -1.6,-2.4 -2.2,-5.6 -3.2,-8.5 -0.9,-2.3 -1.8,-4.8 -2.7,-7.4 -1.1,-4.3 -5.6,-6.1 -6.7,-10.8 -3.4,-2.1 -7.2,-5.2 -11.5,-3 -11.4,3.8 -14.8,17.1 -18.7,27 -1.7,2.3 -5.1,3.6 -7.6,3.2 -2.3,-0.2 -4.5,-0.9 -5.8,-2.9 -0.3,-4.1 -0.3,-7.5 -0.7,-11.1 1.3,-2.2 -0.7,-4.7 0,-7.2 -0.5,-1.6 -0.7,-3.3 -1.4,-4.7 0.5,-1.8 -2.2,-1.6 -1.5,-3.4 -1.8,-2.5 -2.8,-6.5 -6.6,-7 -1.8,-1 -4.9,-1.5 -6.9,-1.1 -8.6,0.1 -17.1,6.5 -20.1,14.7 -0.9,4.4 -3.1,7.6 -5.6,11.2 -1.6,2 -3.6,-0.4 -5.6,0.2 -3.8,-1.6 -4.3,-6.1 -6.1,-9.4 0.2,-4.1 0.2,-9.2 -1.6,-12.9 0.2,-3.3 -2.7,-5.6 -5.1,-7.1 -3.9,-1.2 -7.9,-1.6 -11.7,0.4 -8.6,5.6 -14.4,14.6 -20.3,22.5 -1.6,0.4 -3.4,3.6 -5.4,1.6 -4.1,-3.4 -2.3,-10.1 -5.6,-14.4 0.2,-1.4 -1.6,-2.2 -2,-3.4 -0.9,-1.6 -2.1,-3.3 -3.9,-4 -6,-0.9 -12.3,0.9 -15.5,6.2 -4.1,5.4 -9.5,11.1 -15.3,15.1 -1.6,0.3 -3.1,-1.6 -4.3,-2.9 -0.9,-2.7 1.2,-4.7 1.1,-7.4 -1.1,-1.3 0.7,-2.7 0.5,-4.3 1.1,-4 0.9,-7.2 2.7,-11 0.2,-1.1 1.3,-1.4 1.6,-2.5 20,-1.6 40.7,-3.1 60.7,-3.8 1.4,-0.7 5.4,0 7.9,-0.5 7.2,-0.2 12.4,-1.7 19.3,-0.6 6.3,-1.6 13.8,-1.1 19.8,-2.1 5.9,-0.6 11.5,0.3 17.6,-0.6 2.7,0.8 5.6,0.4 8.1,0.2 z" />
      <path
         id="path42"
         class="s4"
         d="m 414.5,483.7 c 0.2,-1.1 1.3,-1.4 1.6,-2.5 20,-1.6 40.7,-3.1 60.7,-3.8 1.4,-0.7 5.4,0 7.9,-0.5 7.2,-0.2 12.4,-1.6 19.3,-0.6 6.3,-1.6 13.8,-1 19.8,-2.1 5.9,-0.6 11.5,0.3 17.6,-0.6 2.7,0.8 5.6,0.4 8.1,0.2 11,0.4 25.4,0 36.5,0 3,0 6.9,13 7.9,15.4 -15.8,5.1 -37.8,-6.2 -54.4,-6.3 -12.4,-0.1 -26.1,-0.8 -38.7,0.1 -15.2,1 -29.3,1.6 -44.7,1 -13.2,-0.5 -29.7,-5.9 -42.2,-0.1" />
      <path
         id="path44"
         class="s3"
         d="m 774.3,490.2 c 1.8,-0.9 3.8,0.5 5.2,1.3 -14.4,9.1 -23.7,23.9 -31.8,38.3 -3.3,3.8 -5.8,9.9 -11.7,8.5 -9.7,-3.8 -3.8,-16.6 -7,-23.6 0.1,-2.2 -1.3,-4 -1.1,-6 2,-0.3 4.3,-1.8 5.7,-2.8 6.7,-4.2 12.6,-9.2 17.7,-14.4 3,-6 9.9,-1.3 14.4,-2.4 3,0 5.7,0.7 8.6,1.1 z" />
      <path
         id="path46"
         class="s4"
         d="m 733.8,505.8 c 3.2,-2.2 6.4,-4.4 9.5,-6.9 2.3,-2 6.6,-4.7 8,-7.5 3.1,-5.9 9.9,-1.2 14.4,-2.3 3,0 5.7,0.7 8.6,1.1 1.8,-0.9 3.8,0.5 5.2,1.3 -14.4,9.1 -23.7,23.9 -31.8,38.3 -0.4,0.6 -1,1.2 -1.5,1.8 -1,-2.1 -3.3,-3.2 -4.3,-5.3 -2.3,-4.5 -1.2,-10.2 -3.7,-14.4 -0.3,-0.4 -5.5,-5.4 -4.4,-6.1 z" />
      <path
         id="path48"
         class="s3"
         d="m 691.5,526.9 c -0.7,4.7 -4.3,8.3 -7,11.9 -3.2,0.7 -6.3,1.8 -8.6,-1.3 -2.2,-2.5 -2,-6.1 -3.1,-9 5.4,0.2 11.5,-2.7 16.9,-3.7 2.4,-1.7 1.6,1 1.8,2.1 z" />
      <path
         id="path50"
         class="s3"
         d="m 551.1,821.6 c 1.5,0.3 2.7,0 4.3,-0.7 2.4,-1.1 3.8,-4.7 4,-7.4 2,-0.8 0.4,-3.3 1.1,-4.7 0.7,-1.8 1.2,-4 1.4,-6.3 1.8,-0.7 4.3,-0.7 6.5,-0.4 4.1,3.5 4.3,9.4 5.4,14.4 1.3,7.2 1.4,17.1 9.7,21.3 4,0.9 8.5,4.8 11.9,0.5 4.3,-1.1 2.3,-9.2 8.3,-7.2 5.4,3.6 5.4,10.8 7,16.6 -0.2,3.6 0.2,6.8 -0.2,10.8 -7,-2.4 -12.4,-7.2 -19.2,-9.8 -3.3,-0.3 -6,-2.6 -8.7,-3 -0.2,-0.5 -0.7,-0.7 -1.2,-0.9 -0.8,0.7 -0.6,-1.3 -1.5,-0.4 -3.8,-1.6 -7.5,-4.5 -11.9,-5.7 -0.5,1 -0.7,-0.4 -0.5,-0.6 -4.9,-2.1 -10.3,-4.6 -15.8,-6.3 -3.8,-2.3 -8.1,-3.9 -12.1,-5.4 -1.8,-2.1 -5,-2.5 -7.2,-3.7 0,-0.2 -2,-1.3 -3.2,-1.7 -2.4,-1 -4.9,-1.8 -4.7,-4.6 -0.2,-5.6 -1.1,-10.5 1.4,-15.2 2,-2.3 4,0.6 6,0.9 7.5,5.3 6.3,17.5 16.3,19.5 0.9,0.1 1.8,-0.6 2.9,0 z" />
    </g>
    <path
       id="path54"
       class="s5"
       d="m 624.6,842.5 c 2.3,-0.8 4.8,0.5 7,-0.4 -1.1,8.1 -6.1,14.9 -7.8,22.9 -1.4,-0.4 -3,-1.7 -4.5,-2.4 -0.7,-3.4 1.8,-6.8 1.5,-9.9 0.3,-0.3 0.3,-0.5 0.5,-0.9 -1.2,-0.5 0.6,-0.9 0.4,-1.6 -0.4,-1.3 0.9,-2.3 0,-3.4 2,-1.1 -1.5,-7 2.9,-4.3 z" />
    <g
       id="g60">
      <path
         id="path56"
         class="s6"
         d="m 664,928.3 c -7.8,2 -14.6,5.4 -22.5,7 -1.3,-0.9 0.3,-1.9 0.5,-3.2 2,-1.3 3.3,-3.6 4.9,-4.5 2.5,-2.5 5,-4.7 7.2,-7.2 3.4,2.2 6.6,5.4 9.9,7.9 z" />
      <path
         id="path58"
         class="s6"
         d="m 663.8,959.3 c 1.4,5.6 2.3,12.8 6.1,17.3 3.1,5.7 7.8,11.3 14.1,14 1,1.1 0.5,3.4 0.1,4.9 -1,5.5 -1.6,10.8 -2.8,16 -9.2,0.7 -15.3,5.9 -22.5,11.3 -4.4,2.7 -7.2,6.9 -10.1,10.6 -1.8,2.4 -5.2,5.1 -6.1,8.5 q -0.3,0 -0.6,0 c -7.7,11.2 -12,22 -15.6,35.1 -0.4,3.1 -0.9,6.3 -0.4,9.4 -3.2,3 -6.5,4.5 -9.9,6.4 0.7,-1 -1.6,-1.9 0.2,-2.5 -1.5,-2.5 0.3,-4.5 -1.1,-6.8 0.5,-4.7 0.7,-9.9 0.9,-15.5 -1.6,-1.8 1.1,-3.4 -0.2,-5 0.6,-5.8 0.6,-12.1 1.5,-18.4 -0.4,-2 0.1,-3.2 -0.2,-4.9 -0.6,-4.5 1.1,-7.7 0.9,-12.4 0.5,-3.9 1.2,-7.7 1.1,-11.9 0.7,-1.6 0.1,-3 1,-4.6 0,-3.1 1.5,-6.9 1.3,-10.5 0.2,-1.8 1.1,-3.8 1.6,-5.7 -0.7,-2.4 1.5,-3.1 2.7,-4.7 4.2,0.2 9.6,1.2 14.2,1.4 8,-0.5 18.2,1.3 25.2,-1.4 1.1,-2.7 -2.5,-3.3 -2.5,-5.8 -1.6,-1.1 -0.3,-2.9 -2,-3.8 -1,-3.2 -2.8,-6.4 -3.4,-9.5 -1.6,-3.6 -3.6,-7.2 -3.4,-10.8 1.8,-2 4.7,-1.3 7,-2.9 0.4,-1.1 1.5,-1.1 2.5,-1.2 -0.3,1.2 0.2,2.3 0.4,3.4 z" />
    </g>
    <path
       id="path62"
       class="s7"
       d="m 775.4,191 c 19.8,2.9 35.6,19.7 43.7,37.7 4.4,9 6.2,19.6 8.7,29.1 1.1,9.4 3.2,19.6 2,28.8 0.1,2.7 -0.8,6.5 0,9.4 -0.9,1.6 -0.6,3.6 -1.1,5.4 -0.6,6.1 -2,13.3 -1.5,18.9 -0.9,1.9 -0.3,5 -0.7,7.4 -3.6,20.3 -7.5,39.7 -14,59.9 -4.2,9.2 -7,17.5 -11.7,26.1 -11.5,23.4 -24.9,45.7 -43.9,63.5 -7.8,7.2 -16.2,14.1 -24.7,20.4 -5.9,4.5 -13.5,7.5 -18.9,11.7 -4.9,2.9 -10.3,3.8 -15.7,5.9 -2.8,0.7 -5,2 -7.7,2.5 -11.2,3.1 -21.4,6.3 -33.5,5.6 -5,-0.5 -10.2,-2.3 -14.9,-4.1 -3.4,-0.9 -6.7,-3.3 -9.9,-4.2 -2.2,-0.9 -4.9,-2.1 -6.9,-3.6 -2.5,-1.6 -4.6,-2.8 -6.6,-5 -3.6,-2.9 -7,-6.5 -9.7,-9.9 -1.7,-1.4 -2.4,-4.1 -4.2,-5 -2.3,-2.4 -3.2,-5.3 -5.6,-7.6 -0.9,-1.4 -1.9,-2.9 -2.1,-4.5 -2.7,-5.4 -4.7,-11.7 -6,-17.1 -2.1,-2.2 0.4,-5.6 -2.5,-7.7 0,-3.1 -1.1,-6.4 -1.6,-9.6 -0.7,-2.7 -1.8,-6.1 -1.1,-9 -0.2,-2.3 -1.1,-4.7 -0.7,-6.6 -1.4,-5.6 0.2,-11 -1.1,-17 0.4,-6.6 2.7,-12.9 1.8,-19.4 1.1,-0.5 -0.2,-1.4 0.6,-2.2 1.4,-12.7 6.1,-24.6 8.4,-35.8 1.3,-2.2 1.8,-4.5 2.7,-6.7 1.6,-5.5 3.3,-10.2 5.1,-15.3 -0.8,-1.4 1.6,-1.6 0.9,-2.7 1.8,-3.2 2.1,-6.4 4.5,-9.8 1,-4.2 2.5,-5.5 4.1,-9.4 2.9,-4 4.5,-8.1 7,-12.4 4,-9 9.9,-17 16,-25 0.8,-2.6 3.1,-3.5 4,-6 2.2,-0.5 2.9,-3 4,-4.3 1.4,-1.3 2.1,-4 3.9,-4.7 1.3,-0.7 1.1,-3.4 3.1,-3 0.5,-1.1 0.3,-2.4 2,-2.4 3.9,-4.5 8.1,-10.3 12.9,-14.6 4.3,-3.2 5.6,-6.1 10.3,-8.8 2.3,-2.5 5,-5.7 8.3,-7.6 0.7,-0.7 1.9,-1 2.3,-2.1 12.1,-8.5 25,-17.3 39.2,-22.2 11.2,-3 21.1,-9.3 32.8,-8.4 5.8,-0.2 13,-0.6 18,1.4 z" />
    <path
       id="path64"
       class="s7"
       d="m 409.1,330.2 c 0.7,0.7 2.2,1.2 2.3,1.8 1.5,0 2.9,2 4,1.2 0.2,2.2 2,0 2.5,2 1.1,0.2 3.1,0.9 3.6,1.8 1.6,0.7 3.4,2.2 5.4,2.9 1.3,1.1 4,1.3 4.9,2.9 5.9,3.6 11.9,6.5 17.8,10.2 0.5,0 0.7,0.2 1.1,0.8 6.5,3.2 11.5,7.3 18,10.2 9.5,5.2 18.5,12.4 28.1,17.1 2.5,1.3 4.8,2.7 6.8,4.5 5.8,3.6 12.2,6.1 17.6,10.6 -1.4,2.2 -1.4,5.3 -3.2,7.2 -5.2,10.8 -11.2,21.3 -17.3,31.4 -2,3.2 -3.9,6.4 -6.3,9.7 -1.4,-0.9 -3.8,-0.7 -5.4,-1.1 -7,-0.5 -14.2,-1.8 -21.6,-2.2 -2.1,-0.1 -4.3,-1.6 -6.6,-0.9 -3.1,-0.7 -6.2,-1.2 -9.6,-1.2 -2,-1.1 -3.8,0.2 -5.7,-1.1 -2.4,0 -4.5,-1.3 -6.7,-0.5 -1.3,-1.3 -2.7,0 -4,-1.3 -5.9,0 -12,-2.3 -18.3,-3.1 -0.4,0.9 -0.9,0.2 -1.3,0 -2.3,0.8 -4.7,-1.2 -6.3,0 -3.6,-1.6 -7.2,0.4 -10.4,-1.6 -2,-0.5 -4.2,-0.3 -6,-1.2 -1,-6.2 -2.3,-14.1 -2.1,-20.4 -1.1,-1.1 0.2,-2.5 -0.6,-4.1 0,-3.1 0.4,-6.1 0,-9.4 -0.7,-7 0.6,-12.6 -0.1,-19.4 0,-0.6 0.1,-0.9 0.7,-1.1 -1.5,-1.8 1.1,-3.1 0,-4.7 1.4,-2.3 -0.2,-3.8 0.5,-6.5 0.7,-1.9 0,-4.1 1.5,-5.7 -1.3,-2.5 1.2,-3.6 0.3,-6 1.5,-2.3 0.6,-4.8 1.8,-7.5 0.2,-2.7 2.2,-4.9 1.6,-7.6 0.6,-1.1 1.7,-2.1 2,-3.4 0.2,-2.3 1.8,-4.5 2.9,-6.7 0.2,-0.7 0.2,-1 0.7,-1.6 2,1.6 4.9,3.1 7.4,4 z" />
    <g
       id="g74">
      <path
         id="path66"
         class="s8"
         d="m 612,928.3 c -4,7.2 -9.6,12.6 -14.1,19.6 -2,1.1 -2,3.6 -4.1,5.3 0.7,0.3 -0.4,0 -0.4,0.3 -5.9,8.1 -11.5,16.4 -17.1,24.9 -1.4,0.7 -0.2,1.4 -0.9,2.3 -0.5,2.2 -4.3,3.1 -3,5.4 1.4,2 3.2,-0.4 4.6,0.5 4,-0.5 7.6,0 12.1,0.2 3.6,-0.2 7.7,0.4 11.2,0.9 1.6,-1.6 1.9,1.1 3.4,0.2 3.2,0.9 7.2,-0.2 10.2,1.1 0.6,1.8 -1,3.2 -0.9,5.2 -5.7,0 -11.5,-0.9 -17.4,-0.9 -4.3,-0.4 -10.3,-1.1 -14.8,-0.9 0,0.4 -0.7,0 -0.9,0.4 -9.9,-0.2 -21,0.3 -30.8,1.4 0.6,-0.7 0.4,-2 1.5,-2 2.3,-2.3 3.6,-5.9 6.1,-7.5 9.4,-10.1 15.8,-20.6 24.7,-29.7 1.6,-2 2.1,-5.1 4.5,-6.5 1.6,-3.4 5.2,-5.6 6.8,-8.7 0.4,0 0.5,0 0.9,0 4.3,-3.4 6.3,-8.8 11.9,-9.9 2.1,-0.5 4.1,-1.4 6.5,-1.6 z" />
      <path
         id="path68"
         class="s8"
         d="m 612.1,1001.2 c 0.8,0.7 -0.5,1.3 -0.1,2 -0.9,3.2 -0.8,7.9 -1.5,11.7 -0.9,7.6 -2,15.5 -2.5,23.6 -15.7,-1.6 -30.1,0.9 -46.8,0.3 -10.6,0.8 -21.8,1.8 -32.2,3.3 -2.9,0 -5.4,-0.2 -8.1,0.9 -3.3,-0.2 -8.1,-0.6 -11.7,0.2 -0.6,-0.4 0,-1.3 0.3,-1.1 2.2,-2.9 4.7,-5.6 6.5,-8.9 7,-7.1 13.2,-15.8 19.6,-24.2 1.3,0 2,-1.8 2.2,-1.8 4.5,-6.3 12.6,-6.9 19.1,-9 7.9,-1.7 18.5,-2.9 26.6,-2.4 7,-0.3 14.4,1.3 20.9,2 2.9,0.7 5.2,2.2 7.7,3.4 z" />
      <path
         id="path70"
         class="s8"
         d="m 558.9,1043.2 c 12.2,-0.2 25.7,-0.4 36.9,3 3.9,0.7 7.5,2.4 11.1,4.5 -0.2,10.1 -1.2,22 0,32.6 -0.2,2.2 -0.5,7 0.6,9.7 -0.8,2.4 0.3,5.1 0.1,7.7 -0.1,1.1 0.4,2.2 0.8,3.1 -19.7,-1.6 -42.5,-4.7 -62,-4.7 -19,-2.3 -39.9,-0.1 -59.4,0 -9.9,0.6 -18.9,3.1 -28.4,4.5 -0.5,-0.3 0,-1 0.4,-1 0.1,0.1 0.1,0.1 0.3,0.1 2.5,-3.4 6,-5.7 7.8,-9.9 1.2,-0.9 2.8,-1.9 3,-3.4 1.3,-1.2 2.9,-2.7 3.4,-4.5 3.3,-1.8 4.9,-5.9 7.6,-9 2,-2.7 4.9,-5 5.9,-8.6 0.9,-0.6 2,-2.4 2.9,-2.9 2,-2.7 4.5,-4.3 6.1,-7.6 1.8,-0.3 2.2,-3 4,-3.6 5.2,-2.3 11.3,-4.3 16.7,-5.4 1.1,-1.2 2.6,0 3.6,-1.1 12.1,-1.2 26,-3.2 38,-3.9 0.2,0 0.4,0.2 0.6,0.4 z" />
      <path
         id="path72"
         class="s8"
         d="m 554.5,1104.5 c 0.4,-0.5 1.3,-0.1 1.3,-0.1 6.1,1 13.1,0.5 18.5,1.8 4.9,0.5 8.3,0 12.5,1.8 2.1,0.1 4.3,0.5 5.9,1.2 5.4,0.5 10.6,2.9 15.7,5.4 -0.4,3.3 1.6,5.6 0.5,8.5 1.3,1.2 -0.4,2.7 0.5,3.6 -0.3,1.8 -0.3,3.6 0.4,5.4 -0.2,0.1 -0.4,0.3 -0.4,0.5 1.3,6.3 0.8,13 2.7,18.6 1.8,3.9 0,7.7 2.4,11.5 -0.6,2.1 1.2,3.9 0.9,5.9 1.8,9.2 2.1,18.2 5.6,26.6 -1.3,-0.1 -2.4,-1.2 -3.6,-0.8 0.3,-1.5 -1.3,-0.8 -1.8,-1.5 -2.2,-0.2 -4.2,-2.5 -6.9,-2.2 -0.5,-1 -1.8,0 -2,-0.8 -3.4,-1.3 -5.9,-1.8 -9.5,-3.1 -13.1,-3.4 -25,-5.4 -38.9,-7.9 -0.5,-0.4 -0.5,0.5 -1.1,0.3 -21.9,-3 -44.1,-5.5 -67.1,-6.8 -7.6,0.3 -14.6,-0.2 -22.5,0.5 -8.3,-1.9 -18,-1.4 -26.3,-1.2 -7.2,1.8 -18.7,0.2 -26.1,2.1 -2.3,-0.5 -5.2,0 -7.5,0.4 -2.7,0 -4.4,0.9 -7.1,1.1 0.6,-0.2 0.9,-0.4 1.5,-0.6 9.9,-12.9 21.6,-27.1 31.3,-39.4 0.4,-0.3 -0.2,-1.2 0.7,-1.2 4.9,-5.1 7,-10.5 11.5,-15.4 4,-1.9 7.2,-5.7 11.2,-6.8 6.5,-3.9 13.5,-4.8 20.9,-6.8 18.9,-1.6 37.4,-2.9 56.7,-2.2 7,0 12.9,1.1 20.1,1.6 z" />
    </g>
    <path
       id="path76"
       class="s0"
       d="m 443.1,1182.1 c -23.2,18.7 -43.4,42.7 -64.8,62.3 -2.5,2.7 -4.3,5.2 -7,7.5 -2.5,-1.6 -1.1,3.7 -1.6,-0.1 3,-4.2 5,-9.6 7.2,-14.4 1.2,-0.6 1.2,-2.4 1.8,-2.9 2.3,-2.5 3.4,-5.6 4.7,-8.6 -0.9,-1 1,-0.6 0.5,-1.3 2.2,-1.8 2.2,-4.5 3.8,-6.7 1.4,0 0.5,-1.2 1.4,-1.8 2.7,-3.6 4.9,-7.7 6.7,-11.8 1.6,-0.8 2,-2.7 3.2,-4.2 0.9,-2.1 2.7,-3.8 4.2,-5.9 1.6,-2.4 3.9,-4.3 4.8,-7 1.6,-0.4 2.2,-2.2 3.3,-2.9 9.9,-0.6 17.2,-2 26.1,-2 0.3,-0.9 0.3,0 0.9,0 1.4,-0.5 3.2,-0.2 4.8,-0.2 z" />
    <path
       id="path78"
       class="s0"
       d="m 595.8,1197.8 c 2.7,0.2 5.7,1.1 8.2,2.3 3.8,7.9 4,16.8 8,24.7 3,15.8 9.1,31.5 11.8,47.1 2.9,5.1 2.4,12.1 4.7,17.5 -0.7,0.4 -2,0 -2.7,0.4 -1.6,-2.9 -2.9,-6.2 -4.3,-9.2 -1.1,-0.6 0.4,-1.3 -0.5,-1.8 0.3,-0.9 -2.2,-1.6 -0.6,-2.2 -7,-10.6 -11.5,-23 -18.3,-34 -7.6,-15.8 -17.7,-30.8 -25.6,-46.3 0.5,-1.6 -1.8,-2.5 -0.9,-3.7 6.8,0.3 13.1,3.6 20.2,5.2 z" />
    <g
       id="g83">
      <path
         id="path80"
         class="s9"
         d="m 521.2,396.2 c -1.4,2.2 -1.4,5.3 -3.2,7.2 -5.2,10.8 -11.2,21.3 -17.3,31.4 -2,3.2 -3.9,6.4 -6.3,9.7 -1.4,-0.9 -3.8,-0.7 -5.4,-1.1 -4.8,-0.4 -9.8,-1.1 -14.9,-1.6 q 1.1,-1.4 2.1,-2.7 c 2,-2.3 3.9,-4.9 5.4,-7.7 q 0.1,-0.1 0.2,-0.3 c 0.2,0.1 0.4,0.1 0.6,0.2 3.6,-0.5 7.2,2.4 10.6,0.4 2.9,-0.2 3.2,-2.7 3.8,-4.7 -0.6,-2.7 -3.1,-4.7 -5.4,-5.9 -1.4,-1.1 -3.2,-2.1 -5.1,-2.8 0.5,-1.5 1.1,-3 1.5,-4.5 1.6,-5.9 2.8,-11.7 4.4,-17.5 0.7,-2.8 1.5,-5.6 1.9,-8.4 0.3,-1.6 1,-3.1 1.3,-4.7 0.2,-0.8 0.3,-1.7 0.3,-2.6 q 0.5,0.2 1.1,0.5 c 2.5,1.3 4.8,2.7 6.8,4.5 5.8,3.6 12.2,6.1 17.6,10.6 z" />
      <path
         id="&lt;Compound Path&gt;"
         fill-rule="evenodd"
         class="s9"
         d="m 827.2,320.3 c -0.9,1.9 -0.3,5 -0.7,7.4 -3.6,20.3 -7.5,39.7 -14,59.9 -4.2,9.2 -7,17.5 -11.7,26.1 -11.5,23.4 -24.9,45.7 -43.9,63.5 -7.8,7.2 -16.2,14.1 -24.7,20.4 -5.9,4.5 -13.5,7.5 -18.9,11.7 -4.9,2.9 -10.3,3.8 -15.7,5.9 -2.8,0.7 -5,2 -7.7,2.5 q -1.8,0.5 -3.7,1 c -24.5,-6 -21,-60.1 -20.5,-65.4 1.1,-14.1 11,-46.7 13.4,-55.7 11.3,-5.5 21.9,-12.5 31,-20.3 12.7,-11.8 25,-24.5 35.1,-38.5 1.2,-1.4 1.8,-3.6 2.8,-5 6.9,-9.9 11,-21.5 14.8,-33.1 0.9,-3.3 1.4,-6.9 2.2,-10.3 1.2,-2.7 0.7,-6.1 2.1,-8.8 1.6,-7.4 0.4,-14.8 -0.9,-21.6 -1.2,-1.5 -0.7,-3.1 -2.3,-4 0.5,-2.3 -2.2,-3.4 -2.7,-5.6 q -0.9,-1.2 -1.8,-2.6 c 11.6,-7.8 32,-20.8 40.9,-15.8 14.2,7.9 19,23.9 21.4,33.3 0.8,3.2 4,22.7 5.2,32.7 0.3,3.3 0.7,6.5 1,9.8 -0.5,4.4 -1,8.8 -0.7,12.5 z m -93.9,144.2 c 0.9,-4.2 -2,-6.2 -4.7,-8 -1.6,-1.2 -3.6,-1.6 -5.4,-2.3 -1.3,-0.7 -2.5,0.5 -3.6,-0.5 -1.4,0.3 -4.1,-1.1 -4.7,0.9 -2.7,0 -4.7,2.3 -7.5,3 -2.4,3.3 -7.2,3.1 -9.4,6.9 -3.2,1.6 -4.3,3.9 -6.8,6.3 0,2.8 -3.8,1.8 -3.6,4.8 -1.3,0.6 -0.9,2.5 -2.6,2.7 -1,3.4 -2.8,6.9 -2.8,10.6 -0.6,1.8 0.9,2.6 0.3,5.1 1.6,0.7 1.5,4.3 3.8,3.6 3.2,3.9 9,1.6 13.1,2 1.8,-1.1 4,-1.7 5.8,-2 1.1,-1.3 3.1,-0.9 3.8,-2.2 8.6,-3.9 16.2,-10.8 21.9,-18.5 0.6,-1.3 0.8,-3.1 1.7,-3.8 0,-2.7 2.7,-5.8 0.7,-8.6 z" />
    </g>
    <g
       id="g129">
      <g
         id="g107">
        <path
           id="path85"
           class="s10"
           d="m 456.8,842.6 c 0,1.6 -1.8,2 -2.9,2.7 -5,-1.8 -9.5,-6.4 -13.7,-10.2 0.4,-1.1 1.8,-1.8 2.4,-2.9 4.5,3.8 9.7,6.5 14.2,10.4 z" />
        <path
           id="path87"
           class="s10"
           d="m 470.3,853.1 c 3.6,2.5 7,5.4 10.6,7.9 0.7,2.2 -2.1,1.4 -3,2.2 -2.2,1.4 -4.5,0.3 -6.7,-0.2 -1.4,-2.4 -4.3,-3.3 -5.9,-4.9 -0.4,-0.9 -0.8,-0.4 -1.3,-0.7 -1.8,-3.6 -5.2,-5.6 -8.3,-8.7 0.6,-1.7 2.7,-1.4 3.8,-3 3.4,2.3 7,5.2 10.8,7.4 z" />
        <path
           id="path89"
           class="s10"
           d="m 509.5,879.9 c 0.6,1.6 -1.6,3.4 -2.1,4.9 -2.5,0.9 -4.5,2.7 -7.4,2.7 0,-2.2 -3.1,-1.3 -3.2,-3.3 -1.7,-2 -3.8,-3.4 -5.8,-4.8 -0.7,-1.7 -2.9,-2.7 -4.3,-3.8 -2.9,-2.9 -6.7,-5.1 -9.4,-6.7 0.2,-0.3 2,-0.9 2.7,-1.6 3.1,0 4.2,-5.9 7.4,-2.3 8.1,3.4 14.6,10.8 22.1,14.9 z" />
        <path
           id="path91"
           class="s10"
           d="m 524.3,890.5 c 2,1.8 5.2,2.9 7,4.9 1.5,2 7.4,2.8 3.6,6.1 -2.9,4.1 -8.6,4.5 -13.3,3.8 -1.1,-1.8 -3.8,-2.4 -4.9,-4.5 -2.5,0.5 -2.1,-2.5 -3.7,-3.1 -2.6,-2 -5.3,-3.4 -7.8,-6.1 1.6,-1.6 3.8,-3.1 5.6,-4.7 1.3,-1.1 2.7,-2 3.8,-3.2 3.2,2.1 5.9,5.4 9.7,6.8 z" />
        <path
           id="path93"
           class="s10"
           d="m 545.9,904 c 1.4,1.1 3.2,2.5 4.7,3.3 -0.4,0.9 -2.2,1 -2,2.7 4.9,2.3 9.7,3.7 14,6.1 -0.3,6.3 -6.8,7.2 -11.3,9 -1.8,-0.6 -5.4,1.2 -6.3,-1.1 -5.4,-2.2 -7.9,-8.1 -12.8,-10.6 -0.5,-1.3 -1.4,-2.2 -2.5,-2.7 3.8,-2.5 7.6,-6.1 10.3,-9.7 2.1,0.5 3.7,2.5 5.9,3 z" />
        <path
           id="path95"
           class="s10"
           d="m 574,924.2 c 1.4,0.3 3,1.8 4.7,1.6 1.8,2.3 5.2,2.7 7.3,4.3 1.1,0.6 2.4,1.6 3.6,2.2 -3.2,5.4 -10,10.9 -14.7,15.1 -2.7,-2.9 -4.9,-4.3 -8.3,-6.5 -1.8,-2.3 -4.1,-3.8 -6.5,-5.7 -0.3,-0.2 -1.2,0.3 -0.9,-0.4 -1.4,-2.3 -4.3,-2 -5.6,-4.7 4.5,-3.2 9.4,-5.7 11.9,-11.3 2.7,1.6 5.8,3.4 8.5,5.4 z" />
        <path
           id="path97"
           class="s10"
           d="m 811.8,883.1 c -8.7,3.5 -15.5,8 -24.5,10.6 -3.3,1.3 -7,4 -10.3,0.8 -0.5,-0.8 -1.6,-1.6 -1.6,-2.7 3.6,-2 8.1,-4.2 12.4,-5.1 1.5,-0.5 2.5,-0.9 4.2,-1.6 2.3,0.2 4.3,-2.1 6.8,-2.1 0.7,-1.5 2.2,-0.4 3.1,-0.9 2.3,-1.7 5.2,-2 7.5,-3.3 0.6,1.4 2,2.7 2.4,4.3 z" />
        <path
           id="path99"
           class="s10"
           d="m 772.5,895.9 c 0.2,1.5 1.1,2 1.6,3.4 -10.2,4.5 -20.5,8.1 -31.1,12.8 -2.3,-0.3 -5.8,-0.3 -7.7,-1.8 -0.4,-0.9 0,-2.1 -0.2,-3.2 1.2,-1.6 4.3,-1.3 6.1,-2.4 4.9,-2.1 9.7,-3.7 14.4,-6.1 2.7,0 3.4,-1.6 6.1,-1.6 3.3,-1.6 5.4,-2.2 8.7,-3.8 1.2,-0.2 0.7,2.4 2.1,2.7 z" />
        <path
           id="path101"
           class="s10"
           d="m 735.1,916.1 c -10.8,5.6 -22.2,9.5 -32.8,15.1 -3.8,0 -6.6,4.5 -10.4,2.7 -2,0 -4,-0.7 -5.2,-2.2 0,-1.4 -0.9,-4.3 0,-5.9 4.8,-4 11.3,-2.9 16.2,-6.7 1.6,0 8.8,-4.3 11.5,-4.3 0.5,-0.5 1.6,-0.7 2.3,-1.1 3.6,-0.9 7.9,-2.5 11.2,-4.5 0.3,-1.2 1.2,0.6 1.6,-0.7 3.8,0.9 1.8,6.3 5.6,7.6 z" />
        <path
           id="path103"
           class="s10"
           d="m 682.9,927.8 c -0.4,3.8 -0.9,7.7 2.1,10.2 q 0,0.3 0,0.6 c -4.3,2.1 -9.1,3.8 -13.3,5.4 -6.6,2.3 -13.1,5 -19.6,7.5 -1.4,-0.1 -3.2,-1.9 -4.3,-3.6 0.7,-2.3 -1.6,-5 0.5,-6.6 2,-0.6 4,-1.1 5.4,-2.7 1.6,0.5 3.4,-0.9 5.4,-1.3 1.6,-1.2 4.3,-1.1 6,-2.5 2.3,0 3.4,-2.2 5.9,-2 3.8,-1.6 7.7,-3.9 11.9,-5 z" />
        <path
           id="path105"
           class="s10"
           d="m 644.2,942.9 c -0.7,2.9 -0.7,7.2 1.6,9.5 0.2,0.4 0,0.9 0,1.5 -7,3.8 -14.8,6.5 -21.6,11.5 -1.6,0.2 -6.1,2.9 -3.4,-1.3 1.1,-3.4 2.1,-5.9 3,-9.3 2.6,-2.7 1.8,-8.7 7.2,-8.8 0.4,-1.3 2.2,-0.4 2.9,-1.8 1.3,1 2.5,-0.6 4,-0.2 -0.2,-1.1 1.1,-0.9 1.2,-0.2 2.4,-0.2 2.6,-1.6 5.1,-0.9 z" />
      </g>
      <path
         id="path109"
         class="s10"
         d="m 685.2,982.9 c -7.7,-4.2 -15.3,-9.9 -16.4,-19.3 -1.8,-2.7 -1,-5.6 -1.6,-8.8 0.6,-1.6 2.9,-1.1 4.2,-2.2 2.7,-2.5 7.3,-2.5 10,-5.2 3.8,10.4 4.5,23.9 3.8,35.5 z" />
      <path
         id="path111"
         class="s10"
         d="m 678.6,1021.2 c -7.1,16.7 -16.8,33.1 -31,45.9 -4.7,3.4 -8.5,9.2 -13.7,12.4 -0.7,-3.4 0.6,-6.8 0.7,-10.4 0.4,-1.5 0.9,-3.6 1.3,-5.4 3.4,-14.2 12.8,-25.8 22.5,-36.6 3.4,-3 8.5,-5.2 12.2,-7.4 3.5,0 5.3,-1.9 8.7,-1.7 0,1 -0.7,1.9 -0.7,3.2 z" />
      <path
         id="path113"
         class="s10"
         d="m 676.4,893 c -5,5.1 -11.3,8.3 -15.8,14.3 -5.6,4.3 -13.4,8.8 -17.3,14.2 -0.4,0 -0.6,0 -0.9,0 -2,2 -3.1,3.2 -4.9,5 -2.5,-5.6 -4.7,-11.5 -7.4,-16.2 -2.8,-1.4 -3.9,1.3 -5.2,3.1 -3.4,4.1 -7.7,7.9 -11,12.2 -2.1,-0.7 -4.8,-0.4 -7.5,-0.2 -3.6,1.3 -7.6,1.5 -10.5,4.3 -1,-2.1 -2.7,-1.9 -4.5,-3.5 -1.8,0.9 -0.9,-2 -2.3,-0.9 -1.1,-1.3 -2.9,-2.9 -5,-2.7 -2.6,-3.3 -6.2,-4 -9.6,-6.9 -4.8,-1.8 -9.3,-5.2 -14.7,-6.3 3.9,-0.7 9.3,-1.1 13.5,-2.1 5.5,-1.1 8.8,-2.7 14.2,-3.1 1.2,-1.4 4.7,-0.5 6.8,-1.4 13.3,-1.3 28.1,-4.4 41.2,-5.1 11,-2.7 24,-1.6 35.5,-3.9 1.6,0 3.2,-1.1 5.4,-0.8 z" />
      <path
         id="path115"
         class="s10"
         d="m 633.6,936.4 c -2.6,-1.4 -4.7,1.8 -6.9,2.7 -8.1,10.5 -11,23.4 -13.5,36.4 0.6,0.7 0.7,1.6 1.3,2.1 1.1,-2.1 3.2,-2.1 5.2,-2.8 3.8,-0.6 6.1,-4.4 10.4,-4.4 5.3,-2.1 10.3,-4.6 15.5,-6.3 3.3,6.3 5.8,13 8.1,19.7 -10.8,-2 -22.1,-1.5 -32.9,-1.8 0,0 -0.4,-0.2 -0.4,-0.4 -7.2,0.9 -14.7,-0.9 -21,-0.4 -3.5,-1 -8,-0.9 -11.4,-0.9 -2,-0.1 -4.3,0 -6.3,0.6 -0.3,-0.9 0.6,-1.6 1.3,-1.8 2.7,-2.9 5.2,-5.8 6.6,-9 1.1,0.5 1.5,-0.7 1.7,-1.3 6.4,-7.9 11.7,-15.6 17.6,-23.2 0,-1.8 1.8,-1.6 2,-3.1 2.3,-1.4 0.9,-4.5 3.4,-5.5 0.4,-0.6 1.3,-0.9 1.6,-1.8 0.9,-1.7 3.3,-4.5 3.8,-6.5 -0.4,-0.7 0.5,-0.4 0.9,-0.4 0.2,-2 2.9,-3 2.2,-5 0.1,-0.2 0.3,-0.7 0.7,-0.2 1.2,-1.1 1.4,-2.9 2.5,-4.1 3.1,5.4 4.1,12 7.6,17.4 z" />
      <g
         id="g127">
        <path
           id="path117"
           class="s10"
           d="m 723.2,454.2 c 1.8,0.7 3.8,1.1 5.4,2.3 2.7,1.8 5.6,3.8 4.7,8 2,2.8 -0.7,5.9 -0.7,8.6 -0.9,0.7 -1.1,2.5 -1.7,3.8 -5.7,7.7 -13.3,14.6 -21.9,18.5 -0.7,1.3 -2.7,0.9 -3.8,2.2 -1.8,0.3 -4,0.9 -5.8,2 -4.1,-0.4 -9.9,1.9 -13.1,-2 -2.3,0.7 -2.2,-2.9 -3.8,-3.6 0.6,-2.5 -0.9,-3.3 -0.3,-5.1 0,-3.7 1.8,-7.2 2.8,-10.6 1.7,-0.2 1.3,-2.1 2.6,-2.7 -0.2,-3 3.6,-2 3.6,-4.8 2.5,-2.4 3.6,-4.7 6.8,-6.3 2.2,-3.8 7,-3.6 9.4,-6.9 2.8,-0.7 4.8,-3 7.5,-3 0.6,-2 3.3,-0.6 4.7,-0.9 1.1,1 2.3,-0.2 3.6,0.5 z" />
        <g
           id="g125">
          <path
             id="path119"
             class="s10"
             d="m 422.6,347.8 c 2.7,1.6 5.4,2.2 8.1,3.8 5.9,3.6 10.4,8.3 15.7,13 3.9,5 8.8,10.6 9.7,17.4 1.4,2.3 0,5.8 -1.5,7.9 -0.5,-0.2 -0.9,0.4 -1.4,0.6 -0.2,1.4 -2.3,0.7 -2.9,2 -3.2,-1.3 -6.6,0.5 -10.1,-1.1 -2.5,-0.6 -4.6,-1.7 -7.3,-2 -2.6,-0.2 -3.1,-3.2 -5.6,-2.7 -2.4,-1.6 -4,-2.9 -6.7,-4.3 -2.5,-2.4 -5.9,-4.2 -7.7,-6.7 -3.1,-1.4 -5.1,-4.9 -7.2,-6.8 -0.2,-2.2 -2.4,-3.6 -3.1,-5.6 -0.5,-4.9 -0.3,-9.6 2.4,-13 5.4,-2 11.3,-5.2 16.9,-2.1 0.3,0 0.3,-0.4 0.7,-0.4 z" />
          <path
             id="path121"
             class="s10"
             d="m 710.1,377.3 c -9.1,7.8 -19.7,14.8 -31,20.3 -4.6,2.2 -9.3,4.3 -14,6 -3.1,1.1 -6.5,0.4 -9.2,2 -1.6,-0.2 -2.9,0 -4.2,0.5 -3.2,-0.7 -5.5,0.9 -8.6,-0.5 -0.5,-0.2 -0.4,0.9 -0.7,0.2 -3.1,-0.9 -6.5,-1.3 -8.5,-4.2 -1.6,-2.7 -5.4,-4.6 -5.7,-8.1 -1.8,-0.5 -1.8,-3 -2.6,-3.9 0.6,-1.8 -3,-2.9 -1.8,-4.5 -1.8,-1.1 -0.1,-3.4 -1.4,-4.5 0.5,-2.2 -1.1,-4.9 -0.4,-6.5 -1,-4.7 -1.4,-9.2 -0.7,-13.5 -1.6,-3.4 1.1,-6.5 0.2,-9.9 1.4,-2.5 -0.4,-6.1 2.2,-7.7 -0.6,-1.8 0.5,-4.2 1.6,-6 0.2,-2.9 2.9,-6.7 3.8,-9 1.6,-1.3 1,-4.1 3,-4.7 0.4,-2.5 3.3,-3.8 3.4,-6.5 1.5,-1.6 2.6,-3 3.5,-4.8 2.8,-2.2 3.9,-5.4 6.4,-8.5 2.7,-3.8 5.3,-8.6 8.3,-12 2.9,-2.5 4.9,-5.8 7.6,-8.8 1.2,-2.4 3.4,-3.5 5.4,-5.5 0.7,-3.2 3.9,-4.1 5.9,-6.2 0,-1.8 2.7,0 1.8,-2.2 4.9,-3.8 8.5,-8.8 13.9,-12.3 1.8,-1 3.2,-3.4 5.6,-3.9 1.4,-0.7 3,-2.7 4.8,-3.1 2.9,-2.7 6.5,-4.3 10.3,-5.9 1.1,-1.4 3,-1.8 4.5,-2.2 3,-1.1 5,-3 8.6,-3.4 3.8,-0.2 7.8,-1.4 11.7,-1.6 1.5,0.5 3.1,0 4.7,0.9 1.8,0.9 2.9,-0.4 4.9,0.7 2.7,0.7 5.7,0 7.5,2.3 4.2,0.9 6.3,4.2 8.5,7.5 q 0.9,1.4 1.8,2.6 c 0.5,2.2 3.2,3.3 2.7,5.6 1.6,0.9 1.1,2.5 2.3,4 1.3,6.8 2.5,14.2 0.9,21.6 -1.4,2.7 -0.9,6.1 -2.1,8.8 -0.8,3.4 -1.3,7 -2.2,10.3 -3.8,11.6 -7.9,23.2 -14.8,33.1 -1,1.4 -1.6,3.6 -2.8,5 -10.1,14 -22.4,26.7 -35.1,38.5 z" />
          <path
             id="path123"
             class="s10"
             d="m 482.4,431.3 c -0.2,-0.1 -0.4,-0.1 -0.6,-0.2 -1.5,-0.6 -3.2,-0.8 -4.8,-1.6 -3.1,-1.6 -5.8,-3.4 -6.3,-7.2 -0.6,-1.2 0.5,-2.8 1,-4.3 3.5,-1.3 7.6,-1.1 10.8,-0.7 1.3,0.2 2.6,0.5 3.8,1 1.9,0.7 3.7,1.7 5.1,2.8 2.3,1.2 4.8,3.2 5.4,5.9 -0.6,2 -0.9,4.5 -3.8,4.7 -3.4,2 -7,-0.9 -10.6,-0.4 z" />
        </g>
      </g>
    </g>
    <g
       id="g137">
      <path
         id="path131"
         class="s11"
         d="m 545.2,360 c -1.1,0.2 -1.1,1.8 -1.5,2.8 -2.8,11.8 -6.4,23.2 -13.1,33.3 -4.3,-1.8 -6.1,-4.7 -10.1,-6.5 -2.5,-1.5 -4.8,-2.4 -7.2,-4.2 -2.1,-0.9 -4.7,-3.4 -7,-4.3 -3.4,-1.4 -6.1,-4 -9.9,-5.2 -0.5,-2.3 -4.1,-2 -5.2,-4.5 -1.3,-0.4 -1.8,-2 -3.3,-2.3 -4.1,-1.3 -7,-4.9 -10.9,-6.3 -0.9,-2.6 -4.4,-2.6 -5.8,-4.6 -1.1,-0.5 -2.2,-1.4 -3.1,-2.1 l 0.1,-0.6 c 6.4,0.4 19.7,7.5 22,8.3 4.1,1.9 9,2.9 13.1,5.1 q 3.4,1.8 6.7,3.6 c 5.8,3.3 11.2,6.5 15.8,9.1 9.3,-5.7 12.5,-16.1 19.2,-23.8 -0.1,1.4 0.2,2.2 0.2,2.2 z" />
      <path
         id="path133"
         class="s11"
         d="m 487.3,457 c -1.9,-0.2 -3.9,0.1 -5.8,-0.1 -2.2,-0.2 -3.8,-0.7 -6.1,-0.7 -6.4,0 -12.9,-0.3 -19.4,-0.4 q 0.3,0.1 0.5,0.1 -13,-0.9 -26,-2 -4.8,-0.5 -9.6,-0.9 -0.4,-0.1 0.1,0 c -4.8,0 -9.2,-0.2 -13.6,-1.2 -1.4,-0.3 -2.9,-0.8 -4.3,-1.1 q -0.4,0 -0.8,0 0.7,-3.1 1.2,-6.2 c 0.6,-2.4 2.4,-2.2 2.5,-4.5 10.8,1.1 20.7,0.3 31.2,2.1 14.7,1.5 27.2,5.3 42.1,6.2 0.2,0.9 1.6,0.1 1.8,0.7 4.7,1.2 9.5,2.8 14.2,2.2 0,1.9 0.1,3.8 -0.4,5.8 -2.5,0.9 -5.2,0.2 -7.6,0 z" />
      <path
         id="path135"
         class="s11"
         d="m 872.6,506 c -10.6,11.4 -22.7,24.3 -31.5,37.5 -14.4,18.7 -28.8,37.6 -42.1,56.9 -8.3,12.6 -16.2,24.3 -24.9,36.5 -4.3,6.5 -9.1,14.2 -13.3,20.9 -2.7,2.9 -4.8,6.8 -6.6,10.2 0,0 0,0 0.1,0.2 -4.8,4.9 -8.1,11 -12,16.2 -8.7,12.4 -17.1,25 -24.3,38.2 -3.1,3 -6,7.9 -8.5,11.7 -0.7,2.5 -2.3,5 -3.6,7.7 -0.9,2.9 -3.8,4.2 -4.1,7.2 -1.6,2.5 -2.2,4.9 -4.2,7.6 -5.2,10.2 -11.8,20.3 -17.8,29.7 -3.2,4.8 -5.9,10.4 -8.8,15.5 -0.5,0.1 -0.9,1.6 -1.6,2.3 -11.7,22.3 -20.2,46.3 -31.2,69.1 -1.6,1.3 -1.2,3.6 -2.5,4.9 0.4,1.6 -1.1,2.9 -1.4,4.3 -0.6,3.4 -3.2,5.9 -3.1,9.4 -2.5,-0.1 -4.8,0.5 -7.2,1 q -2.5,0.6 -4.9,1.1 -0.5,0 -1,0 -0.2,0.2 -0.5,0.3 -0.3,0.1 -0.7,0.2 c -0.4,0 -0.7,0 -1.1,0.2 q -0.2,0.1 -0.4,0.1 c -2.1,-1 -3.7,0.8 -5.8,0.3 q -0.2,0.2 -0.3,0.2 c -1.9,-3.4 -2.6,-7.5 -4.6,-10.9 -2,-3.5 -4.6,-7.2 -6.5,-10.6 -3.9,-7.4 -7.6,-13.8 -12.7,-19.9 10.6,5.4 21.1,10.6 32,15.1 2.2,1.1 4.5,2.2 7.1,3.1 1.2,-1.5 4.5,0.9 4.8,-2 2.2,-5.1 2.9,-10.6 5.2,-15.7 0.9,-5 3.1,-9.7 5.1,-14.4 0.9,-3.2 1.4,-6.3 2.7,-9 -0.2,-2.5 1.2,-4.7 0.9,-7 2.1,-4.3 2.7,-9.5 4.3,-14.2 1.3,-3.1 1.8,-6.9 3.6,-9.9 2,-4.2 2.2,-9.4 5,-12.8 -0.1,-2.9 2.9,-5.2 3.3,-8.6 2,-3.5 3,-5.3 4.3,-8.9 2,-1 0.4,-3.2 2.3,-3.7 1.3,-2.7 1.8,-5.4 4,-7.6 1.3,-4 2.3,-8.5 4.9,-11.9 0.1,-2.5 1.8,-4.7 2.5,-6.8 1.2,-1.3 0.7,-2.7 2.3,-4 0.7,-3.8 3.6,-6.1 4.3,-9.9 1.7,-2.9 3.8,-5.9 3.8,-9.7 0.9,-1.4 2.2,-2.5 2,-4.3 2,-2 1.4,-4.9 3.1,-6.9 1.9,-1.9 3.2,-4.5 3.2,-7.3 2.9,-2.6 3.6,-7.2 5.8,-9.9 2.1,-2.2 2.8,-6.5 3.7,-9.4 1.5,-1.1 1.5,-4.1 2.7,-5.9 0.8,-3.3 2.2,-6 2.9,-8.7 1.6,-0.9 0.4,-3.4 2,-4.1 0,-0.7 0.9,-1.8 0.9,-2.9 0.5,-1.1 0.9,-2.5 1.6,-3.4 1.6,-2.4 2,-5.6 4.2,-8.3 0.3,-1.1 0.9,-2.7 1.2,-3.4 1.5,-2 2.9,-4.2 3.4,-5.8 1.7,-3.8 4.5,-7 6.2,-10.8 0.9,-3.9 3.4,-5.7 4.5,-9.3 1.6,-2.2 2.8,-5.3 3.9,-7.8 0.6,-0.2 1.1,-2 2,-2.5 0.9,-2.7 2.3,-5.8 3.8,-7.9 0,-1.3 1.1,-2.4 1.8,-3.4 3,-4.7 5.4,-9.9 7.7,-14.4 0.2,0 0.4,0 0.4,0 2.1,-4.9 4.5,-8.9 7.2,-13.5 -0.6,-2.6 2.5,-2.9 2.1,-5.1 1.5,-1.8 3.3,-5.2 3.5,-6.3 0.7,-0.9 1.8,-1.8 1.8,-3 0.9,0.7 1.6,-1.5 2.3,-2.4 0.2,-1.2 1.4,-2 1.8,-3 1.1,-2.6 2.9,-4.7 3.4,-7.4 1.8,-1.6 2.4,-4.3 4.5,-6.1 1.3,-2.4 2.5,-4.9 4,-6.9 6.1,-9.9 11.7,-19.1 16.4,-29.9 1.6,-0.5 0.3,-2.7 1.6,-3.6 0.9,-2.3 -2.4,-0.7 -2.4,-2.1 -0.5,-0.6 -1.6,0.2 -2.5,0.3 -12.6,-3.2 -25.9,-6.1 -38.9,-6.8 8,-7.2 15.2,-15.7 22.5,-24.8 0.2,-1.8 2.2,-2.9 2.9,-4.7 2,-2.4 4,-6.1 6.1,-8.8 7.6,-12.1 14.4,-24.9 19.3,-37.3 3.6,-5.6 4.9,-11.9 7.7,-17.6 0.6,-4.2 3.1,-7.1 3.1,-11.6 1.4,-1.2 0.5,-3.8 2,-5 1.1,-5.9 3.4,-10.6 5,-16.8 1.5,-5 2.7,-10.2 3.3,-15.3 q 0.4,-0.8 0.7,-1.8 c 0.2,0 0.4,-0.1 0.5,-0.1 0.8,2.3 -0.7,6.3 -0.8,8.9 -0.1,3.2 -0.6,6.1 -1,9.2 -0.8,6.5 -2.1,12.3 -3.8,18.8 -3.1,12.3 -5.3,25.4 -10.4,36.9 -3,6.8 -5.5,9.6 -8.8,16.1 -3.4,6.7 -7.8,16.2 -11.8,22.3 -5.6,8.7 -8.9,19 -12.1,28.5 4.3,-1.7 10.4,-6.6 13.9,-9.8 5.9,-5.4 15.2,-14.2 21,-20 9.5,-9.5 20,-20 20,-20 l 10,-11 c 0,0 0,-30.2 0,-37 0,-11.5 -1,-20 -4,-34.7 2.1,3.9 6.4,8.6 7,12.7 0.8,5.2 8.1,40.6 8.2,44.7 3.2,-4 2.5,-17.3 1.9,-22.7 -1.1,-9.1 -2.1,-18.4 -2.1,-27.9 0,-9.6 0.8,-12.8 -1,-22.1 -1.7,-9.1 -1.6,-25.8 -2.9,-35.1 -1.2,-8.2 -3.6,-16.9 -6.4,-24.9 -1,-3.1 -4.8,-7.7 -2.7,-10.5 1.1,0.3 2.1,0.5 3.6,0.5 2,4.3 2,9.6 5.1,13.5 1.4,7.4 3.6,15.2 6.1,22.3 0.9,1.7 0.9,4 1.8,5.5 1.1,8.6 4.7,16.3 5.2,25 0,2.1 1.5,2.9 2,4.5 -0.9,2.7 1.4,5.2 1.1,7.9 1.8,2.1 0.7,6.1 2.5,8.1 0.2,2 0.4,4.3 0.7,6.5 1.5,2.7 0.6,4.7 1.5,7.5 0.3,0.9 0.7,2 0.7,3.1 0,1.4 0.7,2.5 1.4,3.9 6.3,23.1 7.4,48.1 14.2,71.5 0,11.2 3.3,21.6 4,32.6 -0.5,1.8 -0.2,2.9 -0.2,4.7 -6.5,10.4 -16.2,17.6 -24.1,26.4 z" />
    </g>
    <g
       id="g157">
      <g
         id="g147">
        <path
           id="path139"
           class="s5"
           d="m 638.2,640.5 c 0,0.7 -0.5,1.3 -0.3,2.2 1.2,12.4 1.8,24.3 2.1,36.1 -0.1,2.9 0.2,6.7 0.2,10.5 -2,2.7 -2.7,6.4 -6.3,7.4 -0.7,1 -2.3,1.6 -3.9,1.2 0,-2.2 -0.9,-4.1 -1.1,-6.1 0.5,-1.4 0.5,-3.1 0,-4.7 -0.6,-4.5 -0.2,-8.4 -0.9,-12.9 0.5,-0.6 0.2,-1 0,-1.5 -1.6,-6.6 -0.2,-13.7 -3.1,-20.1 -0.5,-2.4 -0.2,-5.6 -1.4,-8.1 4.1,-1.8 10.8,-0.2 14,-5.6 0,0.3 -0.2,1.8 0.7,1.6 z" />
        <path
           id="path141"
           class="s5"
           d="m 640.8,733.2 c -1.8,4.3 -3.1,11 -8.5,11.5 -0.9,-0.3 -1.8,-0.5 -2.7,-0.7 -0.9,-2.5 0.9,-4.7 -0.4,-7.2 1.5,-1.3 -0.7,-4.5 0.9,-6.8 -1,-2.9 0.2,-6.9 -0.1,-9.9 -0.6,-5.6 0.9,-10.3 0.3,-16.1 -0.7,-0.5 0,-0.9 -0.2,-1.8 1.5,0.4 4,-0.5 5.4,-1 1.7,-1 3.5,-2.2 4.5,-3.5 0.2,11.9 0.4,24 0.8,35.5 z" />
        <path
           id="path143"
           class="s5"
           d="m 641.1,745.3 c -0.2,15.4 -1.2,31.6 -2.3,46.4 -2.9,2.7 -6.1,4.7 -9.9,5 -1.1,-0.5 -2.4,-1.8 -2.9,-3 0.2,-1.6 0.7,-2.2 0.7,-3.4 1.3,-4.5 0.6,-10.7 1.5,-15 -0.8,-4.1 0.9,-9.3 -0.2,-13.3 1.1,-1.4 0,-2.2 1.1,-3.8 -1.3,-3.4 1.4,-5.9 0.1,-9.5 2.7,0.5 5.8,-0.6 8.5,-1.6 1.6,0 1.8,-1.8 3.4,-1.8 z" />
        <path
           id="path145"
           class="s5"
           d="m 637.7,802 c -1.1,1.2 0,3 -1.1,4.3 -0.9,9.7 -2.5,19.9 -3,29.7 -0.2,1.4 -1.8,2.3 -2.9,3.2 -1.8,0.2 -4.3,0.7 -5.8,-0.3 -2.9,-1.3 -0.9,-3.5 -1.8,-5.4 1.1,-1.5 -0.2,-3.1 0.9,-4.4 0,-9.1 2.9,-17.2 1.6,-26.1 0.8,-1 0.2,-1.6 0.4,-2.8 4.7,0.7 7.7,-0.9 11.7,-2.4 0.4,1.1 -0.7,2.7 0,4.2 z" />
      </g>
      <path
         id="path149"
         class="s5"
         d="m 633.2,637.1 c -0.7,1.2 -2.2,2.9 -3.6,3.2 -2.5,0.7 -4.9,-0.3 -7.2,-0.7 -0.4,-2.7 -1.4,-5 -1.6,-7.6 -1.5,-1.8 -0.9,-5.4 -1.3,-7.7 -1.1,0 -1.6,-0.7 -2.5,-0.4 -1.1,2.2 -2.9,2.4 -4,4.3 -0.3,-2.6 -2.5,-5 -3,-7.7 q -0.6,-2.2 -1.6,-4.2 c 2.6,-6 4.3,-12.7 6.4,-19.3 4.3,-3.9 7.7,-9.2 11,-13.9 0.9,-1.5 2.7,-2.2 3.8,-3.6 1.4,1.1 0.9,-1.5 2.2,-0.4 1,12.8 3,26.5 5,39.4 -0.9,2.6 0,6.3 0,9.6 1.1,3.4 -2.5,6.1 -3.6,9 z" />
      <path
         id="path151"
         class="s5"
         d="m 559,686.7 q 0.2,-0.3 0.4,-0.6 c 0.1,3.1 0.5,6.6 -1.1,9.3 -7,9.7 -14.6,19.6 -20.9,29.9 -0.9,-1.1 0.9,-1.8 0.9,-2.9 0,-4.9 2.4,-8.8 3.1,-13.3 0.1,-0.6 0.2,-1.1 0.3,-1.7 q 1.2,-0.8 2.3,-1.6 c 6.3,-5.4 10,-12.5 15,-19.1 z" />
      <path
         id="path153"
         class="s5"
         d="m 584.2,663 c -3.7,4 -7,7.7 -10.2,12.2 -1.5,-0.7 -1.5,1.5 -2,2.2 0.4,1.4 -1.4,1.8 -1.8,3.1 -1.6,3 -4.1,4.3 -5.8,7 -0.3,-2.3 -0.7,-4.5 -1.2,-6.7 3.1,-4.5 6,-8.9 9.7,-13 4.3,-4.8 8.9,-9.1 12.9,-13.8 -0.1,3 -0.8,6.3 -1.6,9 z" />
      <path
         id="path155"
         class="s5"
         d="m 609.4,629.7 c -1.2,8.1 -9.1,13.7 -13.6,20 -1.8,1.4 -2.6,3.4 -4.4,4.7 -0.3,-1.8 -0.7,-3.7 -1.3,-5.5 3.6,-4.7 6.9,-9.4 10.4,-14.4 2.7,-4 3.9,-8.8 5.7,-13.4 1.5,2.7 2.7,5.6 3.2,8.6 z" />
    </g>
    <path
       id="path159"
       class="s12"
       d="m 651.3,1030.1 q -1.4,1.7 -2.6,3.3 c -1.8,2.4 -5.2,5.1 -6.1,8.5 q -0.3,0 -0.6,0 c -7.7,11.2 -12,22 -15.6,35.1 -0.4,3.1 -0.9,6.3 -0.4,9.4 -3.2,3 -6.5,4.5 -9.9,6.4 0.7,-1 -1.6,-1.9 0.2,-2.5 -1.5,-2.5 0.3,-4.5 -1.1,-6.8 0.5,-4.7 0.7,-9.9 0.9,-15.5 -1.6,-1.8 1.1,-3.4 -0.2,-5 0.6,-5.8 0.6,-12.1 1.5,-18.4 -0.4,-2 0.1,-3.2 -0.2,-4.9 -0.6,-4.5 1.1,-7.7 0.9,-12.4 0.5,-3.9 1.2,-7.7 1.1,-11.9 0.7,-1.6 0.1,-3 1,-4.6 0,-3.1 1.5,-6.9 1.3,-10.5 0.2,-1.8 1.1,-3.8 1.6,-5.7 -0.7,-2.4 1.5,-3.1 2.7,-4.7 4.2,0.2 9.6,1.2 14.2,1.4 2.5,-0.2 5.2,-0.1 8,0 -0.1,1.2 -0.2,2.5 0,3.7 0.6,4.7 1.4,9.2 2,14 0.8,6.5 1.4,13.9 1.3,21.1 z" />
    <g
       id="g197">
      <g
         id="g169">
        <g
           id="g165">
          <path
             id="path161"
             class="s13"
             d="m 637.7,926.3 q -0.1,0.1 -0.2,0.1 c -2.5,-5.6 -4.7,-11.4 -7.4,-16.1 -2.8,-1.4 -3.9,1.3 -5.2,3.1 -3.4,4.1 -7.7,7.9 -11,12.2 -1.1,-0.4 -2.5,-0.4 -3.9,-0.4 -0.1,-4.7 -0.4,-9.5 0.2,-14 5.9,0.3 12.4,-2.9 17.7,-4.3 5.8,-1.4 11,-3.7 17.1,-5.1 6,-1.5 12.1,-3.2 18,-4.7 3.3,-0.9 6.2,-1.8 9.2,-2.9 0.8,-0.3 1.9,-0.7 3,-1.2 q 0.5,-0.1 1.2,0 c -5,5.1 -11.3,8.3 -15.8,14.3 -5.6,4.3 -13.4,8.8 -17.3,14.2 -0.4,0 -0.6,0 -0.9,0 -1.9,1.9 -3,3.1 -4.7,4.8 z" />
          <path
             id="path163"
             class="s13"
             d="m 653.7,983.8 c -10.8,-2 -22.1,-1.5 -32.9,-1.8 0,0 -0.4,-0.2 -0.4,-0.4 -7.2,0.9 -14.7,-0.9 -21,-0.4 -1.7,-0.5 -3.5,-0.7 -5.4,-0.8 0.3,-1.5 0.5,-3.1 1.2,-4.4 1.6,-3.1 4.2,-5.9 5.8,-9 3,-5.6 6,-9 10.3,-13.8 2.1,-2.3 3.4,-5.9 5,-9 1.7,-3.4 3.3,-5.4 5.7,-8.2 2.2,-2.5 5.1,-6.1 7.2,-9.6 1.2,3.4 2.4,6.9 4.4,10 -2.6,-1.4 -4.7,1.8 -6.9,2.7 -8.1,10.5 -11,23.4 -13.5,36.4 0.6,0.7 0.7,1.6 1.3,2.1 1.1,-2.1 3.2,-2.1 5.2,-2.8 3.8,-0.6 6.1,-4.4 10.4,-4.4 5.3,-2.1 10.3,-4.6 15.5,-6.3 3.3,6.3 5.8,13 8.1,19.7 z" />
        </g>
        <path
           id="path167"
           class="s13"
           d="m 647.6,1067.1 c -4.7,3.4 -8.5,9.2 -13.7,12.4 -0.7,-3.4 0.6,-6.8 0.7,-10.4 q 0.1,-0.3 0.2,-0.6 c 2.5,-3.4 4.9,-7 7,-10.5 1.6,-2.7 5.2,-10.2 9,-9.8 1.3,4.3 3,8.1 3.7,11.9 -2.2,2.4 -4.4,4.8 -6.9,7 z" />
      </g>
      <g
         id="g183">
        <path
           id="path171"
           class="s13"
           d="m 440.2,835.1 c 0.3,-0.7 0.9,-1.3 1.5,-1.9 q 0.1,0.1 0.1,0.1 c 3,2.6 6.8,4.6 9.5,7.7 q 1.7,2 3.4,3.9 -0.4,0.2 -0.8,0.4 c -5,-1.8 -9.5,-6.4 -13.7,-10.2 z" />
        <path
           id="path173"
           class="s13"
           d="m 574.9,947.4 c -2.7,-2.9 -4.9,-4.3 -8.3,-6.5 -1.8,-2.3 -4.1,-3.8 -6.5,-5.7 -0.3,-0.2 -1.2,0.3 -0.9,-0.4 -1.4,-2.3 -4.3,-2 -5.6,-4.7 q 1.4,-0.9 2.7,-1.8 c 1.6,1.3 3.3,2.6 5.2,3.6 6.1,3.3 11.9,7.5 17.1,12.3 -1.3,1.1 -2.6,2.2 -3.7,3.2 z" />
        <path
           id="path175"
           class="s13"
           d="m 553,924.5 q -0.9,0.3 -1.7,0.6 c -1.8,-0.6 -5.4,1.2 -6.3,-1.1 -5.4,-2.2 -7.9,-8.1 -12.8,-10.6 -0.5,-1.3 -1.4,-2.2 -2.5,-2.7 1.3,-0.9 2.5,-1.9 3.7,-2.9 5,4.9 9.9,9.7 15.4,13.4 1.5,0.9 2.9,2.1 4.2,3.3 z" />
        <path
           id="path177"
           class="s13"
           d="m 529.7,905 c -2.6,0.7 -5.5,0.7 -8.1,0.3 -1.1,-1.8 -3.8,-2.4 -4.9,-4.5 -2.5,0.5 -2.1,-2.5 -3.7,-3.1 -2.6,-2 -5.3,-3.4 -7.8,-6.1 1.2,-1.1 2.6,-2.2 3.9,-3.3 q 1.2,0.7 2.5,1.4 c 6.8,4.1 12.5,9.7 18.1,15.3 z" />
        <path
           id="path179"
           class="s13"
           d="m 491,879.4 c -0.7,-1.7 -2.9,-2.7 -4.3,-3.8 -2.9,-2.9 -6.7,-5.1 -9.4,-6.7 0.2,-0.3 2,-0.9 2.7,-1.6 q 0.4,0 0.8,-0.2 c 1.2,1.1 2.4,2.3 3.7,3.6 2.8,3 6.1,4.3 9.7,6.2 2.7,1.5 4.2,3.7 6.5,5.8 1.3,1.2 2.8,2.2 4.3,3.1 -1.5,0.8 -3.1,1.7 -5,1.7 0,-2.2 -3.1,-1.3 -3.2,-3.3 -1.7,-2 -3.8,-3.4 -5.8,-4.8 z" />
        <path
           id="path181"
           class="s13"
           d="m 465.3,858.1 c -0.4,-0.9 -0.8,-0.4 -1.3,-0.7 -1.8,-3.6 -5.2,-5.6 -8.3,-8.7 0.4,-1.3 1.8,-1.4 2.9,-2.1 q 1.2,0.9 2.2,2.1 c 4.8,5.5 9.9,10.9 15.7,15 q 0,0 0,0 c -1.8,0.4 -3.6,-0.3 -5.3,-0.7 -1.4,-2.4 -4.3,-3.3 -5.9,-4.9 z" />
      </g>
      <g
         id="g195">
        <path
           id="path185"
           class="s13"
           d="m 641.1,949 q 1.3,-0.7 2.7,-1.4 c 0.2,1.8 0.8,3.6 2,4.8 0.2,0.4 0,0.9 0,1.5 -7,3.8 -14.8,6.5 -21.6,11.5 -1.6,0.2 -6.1,2.9 -3.4,-1.3 0.9,-2.8 1.8,-5 2.6,-7.6 1.8,-1.3 3.8,-2.6 5.8,-3.3 4.2,-1.4 7.9,-2.1 11.9,-4.2 z" />
        <path
           id="path187"
           class="s13"
           d="m 811.8,883.1 c -8.7,3.5 -15.5,8 -24.5,10.6 -3.2,1.3 -6.9,3.9 -10.1,1 8.5,-2.8 17.1,-5.2 24.7,-8.8 3,-1.4 6.2,-2.8 9.3,-4.1 0.3,0.4 0.5,0.9 0.6,1.3 z" />
        <path
           id="path189"
           class="s13"
           d="m 756.9,903.1 c 4.9,-2.8 10.3,-5 15.7,-6.9 0.3,1.2 1,1.8 1.5,3.1 -10.2,4.5 -20.5,8.1 -31.1,12.8 -0.8,-0.1 -1.8,-0.2 -2.8,-0.3 5.7,-2.6 11,-5.5 16.7,-8.7 z" />
        <path
           id="path191"
           class="s13"
           d="m 735.1,916.1 c -10.8,5.6 -22.2,9.5 -32.8,15.1 -3.8,0 -6.6,4.5 -10.4,2.7 -1.7,0 -3.3,-0.5 -4.5,-1.6 8.7,-4.1 17.3,-8.8 26.5,-12.2 6.4,-2.4 13.2,-3.4 19.4,-5.5 0.4,0.7 0.9,1.2 1.8,1.5 z" />
        <path
           id="path193"
           class="s13"
           d="m 674.1,937 c 2.9,-0.7 5.9,-1.7 8.7,-2.7 0.3,1.4 1,2.7 2.2,3.7 q 0,0.3 0,0.6 c -4.3,2.1 -9.1,3.8 -13.3,5.4 -6.6,2.3 -13.1,5 -19.6,7.5 -1.4,-0.1 -3.2,-1.9 -4.3,-3.6 q 0.1,-0.5 0.1,-1 c 1.7,-0.6 3.3,-1.2 5,-2.1 6.2,-3.3 14.5,-6.2 21.2,-7.8 z" />
      </g>
    </g>
    <g
       id="g207">
      <path
         id="path199"
         class="s14"
         d="m 613.9,989 c 0.6,1.8 -1,3.2 -0.9,5.2 -5.2,0 -10.5,-0.7 -15.9,-0.9 0.4,-2 0.8,-3.9 1.4,-5.8 q 0.9,0.1 1.8,0.2 c 1.6,-1.6 1.9,1.1 3.4,0.2 3.2,0.9 7.2,-0.2 10.2,1.1 z" />
      <path
         id="path201"
         class="s14"
         d="m 608.7,1190.8 c -0.5,-1.1 -1.8,0 -2,-0.9 -3.4,-1.3 -5.9,-1.8 -9.5,-3.1 -13.1,-3.4 -25,-5.4 -38.9,-7.9 -0.5,-0.4 -0.5,0.5 -1.1,0.3 q -13.7,-1.9 -27.6,-3.5 c 1.3,-1.6 2.6,-3.2 4.1,-4.7 18.2,-18.9 32.3,-34 32.3,-34 0,0 4.2,-15.3 5,-22 0.3,-2.8 -1.2,-6.6 -0.7,-9.5 1.4,0.2 2.8,0.4 4,0.7 4.9,0.5 8.3,0 12.5,1.8 2.1,0.1 4.3,0.5 5.9,1.2 5.4,0.6 10.6,2.9 15.7,5.4 -0.4,3.3 1.6,5.6 0.5,8.5 1.3,1.2 -0.4,2.7 0.5,3.6 -0.3,1.8 -0.3,3.6 0.4,5.4 -0.2,0.2 -0.4,0.3 -0.4,0.5 1.3,6.3 0.8,13 2.7,18.6 1.8,3.9 0,7.7 2.4,11.5 -0.6,2.1 1.2,3.9 0.9,5.9 1.8,9.2 2.1,18.2 5.6,26.7 -1.3,-0.2 -2.4,-1.3 -3.6,-0.9 0.3,-1.5 -1.3,-0.8 -1.8,-1.5 -2.2,-0.2 -4.2,-2.5 -6.9,-2.1 z" />
      <path
         id="path203"
         class="s14"
         d="m 571.2,1100.3 c 0.7,-3.8 1.3,-7.5 1.7,-11.2 1.8,-15.7 9.7,-29.4 12.4,-45 3.7,0.4 7.2,1.1 10.5,2.1 3.9,0.7 7.5,2.4 11.1,4.5 -0.2,10.1 -1.2,22 0,32.6 -0.2,2.2 -0.5,7 0.6,9.7 -0.8,2.4 0.3,5.1 0.1,7.8 -0.1,1 0.4,2.1 0.8,3 -11.8,-1 -24.6,-2.4 -37.2,-3.5 z" />
      <path
         id="path205"
         class="s14"
         d="m 612,1003.2 c -0.9,3.2 -0.8,7.9 -1.5,11.7 -0.9,7.6 -2,15.5 -2.5,23.6 -7.6,-0.8 -14.8,-0.6 -22.2,-0.3 2.2,-6.5 4.3,-13 5.3,-19.9 1.2,-7.6 3.8,-14.3 5.1,-21.6 2.8,0.4 5.6,0.8 8.2,1.1 2.9,0.7 5.2,2.2 7.7,3.4 0.8,0.7 -0.5,1.3 -0.1,2 z" />
    </g>
  </g>
</svg>
